<svg xmlns="http://www.w3.org/2000/svg" xmlns:xlink="http://www.w3.org/1999/xlink" id="uuid-c511d712-6868-43aa-9889-db2460696e82" viewBox="0 0 576.2 422.5"><defs><style>.uuid-9ed2261b-024c-4646-b36d-6643e9946dc3{fill:url(#uuid-e0295953-2f60-49f5-975c-b3f8ea5edcca);}.uuid-62038fac-5d36-425e-843d-d67a621dbdf2{fill:url(#uuid-41d400ca-9f1e-4dd2-bace-8ac80fba48f9);}.uuid-399552c4-2f1a-405f-b626-ba07c8e76c4b{fill:url(#uuid-07875723-b827-4831-b5d2-637ec3f38fd3);}.uuid-55dbccd9-0664-4155-bbc3-b0f920255e02{fill:url(#uuid-9a110176-3ca9-495a-9ca9-e2113eadada4);}.uuid-83594609-af03-4c4d-a126-86a6df3afcc0,.uuid-60043556-a7eb-4643-936b-7d11bed4254c{fill:#fff;}.uuid-721335a6-f277-4305-8c9e-97e29d3d5711{fill:url(#uuid-053967aa-2f3f-4e93-9181-9190b3aad7a1);}.uuid-721335a6-f277-4305-8c9e-97e29d3d5711,.uuid-b56ddaff-0f2d-44d8-b7c4-a1b67175a968,.uuid-29ae4b8c-7fef-4c54-a827-5361b5ab93cf,.uuid-c033be28-3054-4146-ad30-6f49b4a19411,.uuid-869d3eda-31a3-4eef-b661-004c4f3e04cc,.uuid-60043556-a7eb-4643-936b-7d11bed4254c,.uuid-edc3da54-f858-4ecc-93c3-e534ff10c936{fill-rule:evenodd;}.uuid-ef469c0f-0666-4f7e-8e40-2228c92d63de{fill:url(#uuid-7a82808d-5d78-4d18-b00a-0249b2c10e26);}.uuid-a1fd54e6-5b08-4a5b-8c31-0352c6cb472c{fill:url(#uuid-c7c69779-e506-42ed-ab76-f6704e0c56bc);}.uuid-30cee93f-2ffe-4940-8d2c-526ce52dd34d{fill:url(#uuid-ff58577d-3b35-4c69-b498-440f49ef3820);}.uuid-601813b6-f2e9-4f69-b201-5fcb47359d4b{fill:url(#uuid-29625f44-342e-418d-9e49-17987e310720);}.uuid-b56ddaff-0f2d-44d8-b7c4-a1b67175a968{fill:url(#uuid-4eafa3d3-7277-4878-8802-fbc3644f090d);}.uuid-29ae4b8c-7fef-4c54-a827-5361b5ab93cf{fill:url(#uuid-a6a57896-46c1-424d-820e-119be84b2e75);stroke:#d9a644;stroke-miterlimit:22.9;stroke-width:.2px;}.uuid-c033be28-3054-4146-ad30-6f49b4a19411{fill:url(#uuid-0230c069-2abf-4a33-816d-a9aa40a62f14);}.uuid-869d3eda-31a3-4eef-b661-004c4f3e04cc{fill:#191817;}.uuid-edc3da54-f858-4ecc-93c3-e534ff10c936{fill:url(#uuid-13db5902-a1a1-4d99-a625-f93550d3998f);}.uuid-2627f4b4-1c2a-4545-8575-4db552d3c1ab{fill:url(#uuid-0977257b-8fef-493a-90aa-1ec6fe26d6c4);}.uuid-a78b713f-cf22-46fc-919b-e3bb398713ad{fill:url(#uuid-fd08fee9-93dd-40e3-9f29-f8079375f776);}.uuid-643ac9ce-7f6a-411d-8c2d-2292f40cd411{fill:url(#uuid-1e260299-5685-4018-83d7-c0e0d693c179);}</style><linearGradient id="uuid-e0295953-2f60-49f5-975c-b3f8ea5edcca" x1="-383.3" y1="330.4" x2="796.3" y2="331.5" gradientUnits="userSpaceOnUse"><stop offset="0" stop-color="#ba9555"></stop><stop offset=".1" stop-color="#965824"></stop><stop offset=".1" stop-color="#9b5f27"></stop><stop offset=".3" stop-color="#b3803a"></stop><stop offset=".4" stop-color="#c49848"></stop><stop offset=".6" stop-color="#cfa650"></stop><stop offset=".7" stop-color="#d3ac53"></stop><stop offset=".8" stop-color="#bd882c"></stop><stop offset="1" stop-color="#a25d25"></stop></linearGradient><linearGradient id="uuid-29625f44-342e-418d-9e49-17987e310720" x1="-383.3" y1="330" x2="796.3" y2="331.1" gradientUnits="userSpaceOnUse"><stop offset="0" stop-color="#ba9555"></stop><stop offset=".1" stop-color="#965824"></stop><stop offset=".7" stop-color="#d3ac53"></stop><stop offset=".8" stop-color="#bd882c"></stop><stop offset="1" stop-color="#a25d25"></stop></linearGradient><linearGradient id="uuid-7a82808d-5d78-4d18-b00a-0249b2c10e26" x1="-383.3" y1="330" x2="796.3" y2="331.1" xlink:href="#uuid-29625f44-342e-418d-9e49-17987e310720"></linearGradient><linearGradient id="uuid-0977257b-8fef-493a-90aa-1ec6fe26d6c4" x1="-383.3" y1="330.6" x2="796.3" y2="331.7" xlink:href="#uuid-29625f44-342e-418d-9e49-17987e310720"></linearGradient><linearGradient id="uuid-fd08fee9-93dd-40e3-9f29-f8079375f776" x1="-383.3" y1="329.9" x2="796.3" y2="331.1" xlink:href="#uuid-29625f44-342e-418d-9e49-17987e310720"></linearGradient><linearGradient id="uuid-c7c69779-e506-42ed-ab76-f6704e0c56bc" x1="-383.3" y1="330.5" x2="796.3" y2="331.6" xlink:href="#uuid-29625f44-342e-418d-9e49-17987e310720"></linearGradient><linearGradient id="uuid-1e260299-5685-4018-83d7-c0e0d693c179" x1="-383.3" y1="330.4" x2="796.3" y2="331.5" xlink:href="#uuid-29625f44-342e-418d-9e49-17987e310720"></linearGradient><linearGradient id="uuid-0230c069-2abf-4a33-816d-a9aa40a62f14" x1="288.1" y1="246.4" x2="288.1" y2="20.6" gradientUnits="userSpaceOnUse"><stop offset="0" stop-color="#ba9555"></stop><stop offset=".1" stop-color="#965824"></stop><stop offset=".4" stop-color="#fcf6ac"></stop><stop offset=".7" stop-color="#d3ac53"></stop><stop offset=".8" stop-color="#bd882c"></stop><stop offset="1" stop-color="#a25d25"></stop></linearGradient><linearGradient id="uuid-053967aa-2f3f-4e93-9181-9190b3aad7a1" x1="288.3" y1="226.6" x2="288.3" y2="14.1" xlink:href="#uuid-0230c069-2abf-4a33-816d-a9aa40a62f14"></linearGradient><linearGradient id="uuid-4eafa3d3-7277-4878-8802-fbc3644f090d" x1="288.3" y1="296.4" x2="288.3" y2="-62.1" xlink:href="#uuid-0230c069-2abf-4a33-816d-a9aa40a62f14"></linearGradient><linearGradient id="uuid-a6a57896-46c1-424d-820e-119be84b2e75" x1="374.3" y1="120.3" x2="202.3" y2="120.3" gradientUnits="userSpaceOnUse"><stop offset="0" stop-color="#bb882c"></stop><stop offset="0" stop-color="#945122"></stop><stop offset=".1" stop-color="#7b3e1a"></stop><stop offset=".3" stop-color="#441c0c"></stop><stop offset=".5" stop-color="#c6832a"></stop><stop offset=".7" stop-color="#e5b93f"></stop><stop offset=".8" stop-color="#fcfbe8"></stop><stop offset=".9" stop-color="#efdc7d"></stop><stop offset="1" stop-color="#8e5723"></stop></linearGradient><radialGradient id="uuid-13db5902-a1a1-4d99-a625-f93550d3998f" cx="311" cy="119.4" fx="311" fy="119.4" r="102.4" gradientUnits="userSpaceOnUse"><stop offset="0" stop-color="#1b1b1b"></stop><stop offset="1" stop-color="#000002"></stop></radialGradient><linearGradient id="uuid-41d400ca-9f1e-4dd2-bace-8ac80fba48f9" x1="192.9" y1="64" x2="421.6" y2="253.9" xlink:href="#uuid-0230c069-2abf-4a33-816d-a9aa40a62f14"></linearGradient><linearGradient id="uuid-9a110176-3ca9-495a-9ca9-e2113eadada4" x1="218.7" y1="33" x2="447.4" y2="222.8" xlink:href="#uuid-0230c069-2abf-4a33-816d-a9aa40a62f14"></linearGradient><linearGradient id="uuid-07875723-b827-4831-b5d2-637ec3f38fd3" x1="221.1" y1="30.1" x2="449.8" y2="219.9" xlink:href="#uuid-0230c069-2abf-4a33-816d-a9aa40a62f14"></linearGradient><linearGradient id="uuid-ff58577d-3b35-4c69-b498-440f49ef3820" x1="209.6" y1="44" x2="438.2" y2="233.9" xlink:href="#uuid-0230c069-2abf-4a33-816d-a9aa40a62f14"></linearGradient></defs><g id="uuid-7f9d4266-1c0f-4f4b-939d-41684ea4376e"><g><g><path class="uuid-9ed2261b-024c-4646-b36d-6643e9946dc3" d="M48.1,318.3c0,4.6-1.7,8.6-5,11.9-3.5,3.5-8.7,5.2-15.5,5.2s-6.9-.5-11.2-1.6c-.3,0-.4,0-.4,.3v14.7c0,6.9,.7,10.3,2,10.3h8.7c.4,0,.6,.2,.6,.5v1.2c0,.4,0,.5-.3,.5H1c-.3,0-.4-.1-.4-.4v-1.4c0-.4,.2-.5,.5-.5H7.7c.5,0,.8-.4,.8-1.1v-46.7c0-5.6-.4-8.4-1.2-8.4H.7c-.5,0-.7-.1-.7-.4v-1.6c0-.3,.2-.5,.6-.5H12.7c.5,0,2.7,0,6.4-.1,3.7,0,5.7-.1,5.9-.1,3.5,0,6.4,.2,8.7,.7,3.7,.7,6.9,2.4,9.7,5.1,3.2,3.1,4.8,7.3,4.8,12.4Zm-7.6,.6c0-4-1.6-7.5-4.8-10.5-3.7-3.5-9-5.3-15.7-5.3s-2.9,0-3.2,0c-.3,0-.4,.4-.5,.9-.2,1.6-.3,6.3-.3,14s0,2.4,0,6.4c0,4,0,6.1,0,6.3,0,.4,.2,.7,.7,.9,2.1,.7,5.1,1.1,9.3,1.1s8.4-1.1,10.7-3.3c2.6-2.4,3.9-5.9,3.9-10.6Z"></path><path class="uuid-601813b6-f2e9-4f69-b201-5fcb47359d4b" d="M137.3,360.9c0,.4-.1,.5-.4,.5h-15.7c-.4,0-.8-.2-1.2-.5-1.2-1-3.5-3.5-6.8-7.6-1.7-2.2-3.5-4.4-5.2-6.6-1.9-2.7-4.6-7-8-12.7-.2-.5-.5-.8-.8-.8-1.5,0-4.2-.2-8-.5-.5-.2-.8,0-.8,.5s0,2.5,0,5.7c0,3.3,0,6.7,0,10.3,0,6.6,.7,9.9,2.2,9.9h8.6c.3,0,.5,.2,.5,.5v1.5c0,.3-.1,.5-.4,.5h-25.6c-.3,0-.5,0-.5-.1,0,0,0-.2,0-.3v-1.4c0-.3,0-.4,.1-.5,0,0,.2,0,.4,0h6.3c.5,0,.8-.5,.8-1.4v-43c0-8.3-.6-12.5-1.7-12.5h-6.1c-.3,0-.5-.1-.5-.4v-1.7c0-.2,.1-.4,.4-.4h14.4c.5,0,2.3,0,5.5-.2,3.2-.1,5-.2,5.4-.2,2.1,0,4.1,.2,6.1,.5,4.4,.7,8,2.2,10.7,4.7,3.2,2.8,4.7,6.4,4.7,10.7s-1.5,8.9-4.6,12.1c-1.9,1.9-5,3.6-9.3,4.9-.3,.1-.4,.3-.3,.5,1.4,3.5,4.7,7.9,9.8,13.4,2.7,2.8,4.6,4.9,5.8,6.1,2.2,2.1,4,3.7,5.5,4.8,2.1,1.4,4.6,2.1,7.7,2.1s.8,.1,.8,.4v1.4Zm-23.4-43.3c0-4-1.4-7.3-4.2-9.8-4-3.5-9.7-5.3-17.2-5.3s-1.7,.2-1.8,.6c0,8.7,0,14.1-.2,16.2v10.3c0,.3,.2,.5,.7,.6,.7,.1,2.8,.2,6.1,.2s2.9-.1,4.7-.4c1.7-.2,2.5-.4,2.3-.4,6.4-1.6,9.6-5.6,9.6-12.2Z"></path><path class="uuid-ef469c0f-0666-4f7e-8e40-2228c92d63de" d="M211.8,355c-.9,1.7-2,3.7-3.2,5.9-.3,.4-.6,.5-1,.5h-45.7c-.3,0-.5-.2-.5-.5v-1.4c0-.3,.1-.5,.4-.5h7.1c.6,0,1-.3,1-1s0-4.9,0-13.9c0-9,0-13.7,0-14s0-3.4,0-9.3c0-5.9,0-9.1,0-9.5,0-6.1-.6-9.2-1.9-9.2h-5.8c-.3,0-.5-.2-.5-.5v-1.5c0-.3,.2-.5,.6-.5h43.2c.6,0,1.4,0,2.3,0,1,0,1.5,0,1.4,0,.4,0,.6,.2,.5,.5-.5,1.7-1,3.6-1.7,5.8-.3,.7-.5,1-.8,1l-.7-.7c-1.2-1.1-3.1-1.9-5.6-2.3-3.6-.6-11.3-1-22.9-1.1-.4,0-.7,.2-.8,.5-.1,.4-.2,7.9-.2,22.5s.3,.9,.8,.9h23.6c.5,0,.7-.2,.8-.7,0-.5,.2-1.4,.4-2.9s.3-2.3,.3-2.4c0-.6,.2-.9,.6-.9h.7c.4,0,.6,.3,.6,.8s0,1.4-.2,3.8-.2,3.8-.2,4.3,0,2,0,4.8,0,4.2,0,4.4c0,.7-.2,1-.5,1h-.8c-.3,0-.5-.2-.6-.6-.1-1.9-.3-4.2-.5-6.9,0-.6-.4-.9-.9-.9s-4.3,0-11.9-.2c-7.6-.1-11.6-.2-11.7-.2-.4,0-.6,.3-.6,.8v17.1c0,7.3,.8,10.9,2.5,10.9,15.1,0,25.1-1.1,30-3.3,1.2-.6,1.9-1,2.2-1.1,.3,0,.4,.2,.3,.6Z"></path><path class="uuid-2627f4b4-1c2a-4545-8575-4db552d3c1ab" d="M320.2,361c0,.3-.2,.5-.5,.5h-22.1c-.5,0-.7-.2-.7-.5v-1.5c0-.3,.2-.5,.5-.5h5.2c.8,0,1.2-.4,1.2-1.1v-23.2c0-11.9-.1-19.9-.4-24,0-.9-.2-1.3-.5-1.3s-.4,.3-.7,.9c-.7,1.3-7.2,15.2-19.6,41.7-1.9,3.9-3.3,7.3-4.4,10-.3,.5-.6,.8-.8,.8-.5,0-.7-.2-.9-.7-4.4-8.5-9-17.4-13.8-26.5-2.6-5.4-6.3-12.5-11-21.4-.3-.5-.5-.8-.8-.8s-.4,.3-.4,1c-.9,12.1-1.3,20.9-1.3,26.4v10.3c0,5.3,.8,8,2.3,8h5.7c.4,0,.5,.1,.5,.4v1.6c0,.3-.1,.5-.3,.5h-17.5c-.4,0-.6-.1-.6-.4v-1.4c0-.4,.2-.6,.5-.6h5c.9,0,1.3-.7,1.3-2,0-4.7,.2-13.4,.7-25.9,.2-2.4,.3-4.7,.4-7.1,.3-4.7,.4-8.7,.4-12.1s-1.6-7.4-4.9-8.9c-.7-.3-2.2-.6-4.3-.8-.3,0-.4-.1-.4-.4v-1.7c0-.2,.1-.4,.4-.4h12.7c.6,0,1,.2,1.2,.6,3,5.6,6.2,11.6,9.7,18.1,5.1,10.3,10.6,21.1,16.5,32.5,.5,.8,1,.9,1.3,.4,3.6-7.7,7.5-15.9,11.6-24.5,4-8.6,8.1-17.4,12.3-26.3,.3-.6,.8-.9,1.5-.9h12.4c.3,0,.5,.1,.5,.4v1.6c0,.3,0,.5-.3,.5h-4.8c-1,0-1.5,1-1.7,3.1-.2,1.9-.3,9.5-.3,22.8s.1,16.7,.3,20.9c.3,6.7,1.3,10.1,2.8,10.1h5.6c.3,0,.4,.2,.4,.5v1.5Z"></path><path class="uuid-a78b713f-cf22-46fc-919b-e3bb398713ad" d="M372.5,361.1c0,.2,0,.4-.3,.4h-23.4c-.3,0-.5,0-.5-.1,0,0,0-.2,0-.3v-1.4c0-.3,0-.4,.1-.5,0,0,.2,0,.3,0h6.6c.5,0,.7-.4,.7-1.3v-46.9c0-5.7-.7-8.6-1.8-8.6h-6.1c-.5,0-.7-.2-.7-.5v-1.6c0-.2,.2-.4,.5-.4h23.4c.3,0,.4,.1,.4,.4v1.7c0,.2-.2,.4-.5,.4h-6.8c-.6,0-.9,.3-.9,1,0,27.5,0,41.6,0,42.6,0,4.5,0,7,0,7.7,.2,3.8,.9,5.6,1.9,5.6h6.8c.3,0,.4,.1,.4,.4v1.7Z"></path><path class="uuid-a1fd54e6-5b08-4a5b-8c31-0352c6cb472c" d="M466,301.6c0,.4,0,.5-.3,.5h-2.8c-2.5,0-3.9,0-4.2,0-.2,.6-.2,1.2-.2,2-.1,1.9-.2,5-.3,9.1,0,5.8,0,13.6,.2,23.3,.3,17.4-7.3,26.1-22.9,26.1s-12.2-.7-16.4-2c-4.2-1.4-7.2-3.8-9-7.2-1.5-2.8-2.4-7.1-2.6-12.8-.1-3.7-.2-13-.2-27.9s-.6-10.6-1.9-10.6h-6.5c-.4,0-.5-.2-.5-.5v-1.4c0-.4,.2-.5,.5-.5h23.7c.4,0,.6,.1,.6,.4v1.4c0,.4-.1,.6-.4,.6h-6.7c-.4,0-.6,.3-.7,.8-.2,1.2-.3,11.2-.3,29.9s.2,10.9,.6,13.2c.7,4.3,2.9,7.6,6.4,9.8,3.5,2.2,8.4,3.4,14.4,3.4s10.9-1.7,14.5-5.1c2.8-2.6,4.2-7.7,4.2-15.4s0-17.7-.3-22.5c-.4-9.3-1.4-14-3.1-14h-6.2c-.3,0-.4,0-.5-.1,0,0,0-.2,0-.3v-1.5c0-.3,.2-.5,.6-.5h19.7c.3,0,.5,.2,.5,.5v1.4Z"></path><path class="uuid-643ac9ce-7f6a-411d-8c2d-2292f40cd411" d="M576.2,361c0,.3-.2,.5-.5,.5h-22.1c-.5,0-.7-.2-.7-.5v-1.5c0-.3,.2-.5,.5-.5h5.2c.8,0,1.2-.4,1.2-1.1v-23.2c0-11.9-.1-19.9-.4-24,0-.9-.2-1.3-.5-1.3s-.4,.3-.7,.9c-.7,1.3-7.2,15.2-19.6,41.7-1.9,3.9-3.3,7.3-4.4,10-.3,.5-.6,.8-.8,.8-.5,0-.7-.2-.9-.7-4.4-8.5-9-17.4-13.8-26.5-2.6-5.4-6.3-12.5-11-21.4-.3-.5-.5-.8-.8-.8s-.4,.3-.4,1c-.9,12.1-1.3,20.9-1.3,26.4v10.3c0,5.3,.8,8,2.3,8h5.7c.4,0,.5,.1,.5,.4v1.6c0,.3-.1,.5-.3,.5h-17.5c-.4,0-.6-.1-.6-.4v-1.4c0-.4,.2-.6,.5-.6h5c.9,0,1.3-.7,1.3-2,0-4.7,.2-13.4,.7-25.9,.2-2.4,.3-4.7,.4-7.1,.3-4.7,.4-8.7,.4-12.1s-1.6-7.4-4.9-8.9c-.7-.3-2.2-.6-4.3-.8-.3,0-.4-.1-.4-.4v-1.7c0-.2,.1-.4,.4-.4h12.7c.6,0,1,.2,1.2,.6,3,5.6,6.2,11.6,9.7,18.1,5.1,10.3,10.6,21.1,16.5,32.5,.5,.8,1,.9,1.3,.4,3.6-7.7,7.5-15.9,11.6-24.5,4-8.6,8.1-17.4,12.3-26.3,.3-.6,.8-.9,1.5-.9h12.4c.3,0,.5,.1,.5,.4v1.6c0,.3,0,.5-.3,.5h-4.8c-1,0-1.5,1-1.7,3.1-.2,1.9-.3,9.5-.3,22.8s.1,16.7,.3,20.9c.3,6.7,1.3,10.1,2.8,10.1h5.6c.3,0,.4,.2,.4,.5v1.5Z"></path></g><g><path class="uuid-c033be28-3054-4146-ad30-6f49b4a19411" d="M304.9,237.2c-.9,.4-1.7,.5-2.5,.6,.7,0,1.6,0,2.6,0,2.5,.2,9.8,7.1,10,8.6-1.5-.9-1.9-2.2-4.5-2.3-1.7,0-4,0-5.7-.2-5-.3-3.8-4.6-7.4-4.9v-.4c0,0,1.7,.1,1.7,.1,.5,0,1.6-.6,3.3-.8-1.6,.2-2.9,0-3.4,0l-1.7,.5v-.5c3.4-1.1,1.3-5.1,6.1-6.5,1.7-.5,3.9-1,5.6-1.5,2.5-.7,2.6-2.1,3.8-3.3,0,1.5-5.4,9.9-7.8,10.6h0Zm-16.7-.8h0c1.5,0,2.8,1.2,2.8,2.8s-1.2,2.8-2.8,2.8-2.8-1.2-2.8-2.8,1.2-2.8,2.8-2.8h0ZM325.9,31.5h0c2.9,1,5.1,.3,5.9,.3l1.7,.4v-.5c-3.5-.9-1.5-5-6.4-6.2-1.7-.4-3.9-.8-5.6-1.2-2.5-.6-2.7-2-4-3.1,0,1.5,5.9,9.6,8.4,10.2h0Zm-75.7,0h0c-2.9,1-5.1,.3-5.9,.3l-1.7,.4v-.5c3.5-.9,1.5-5,6.4-6.2,1.7-.4,3.9-.8,5.6-1.2,2.5-.6,2.7-2,4-3.1,0,1.5-5.9,9.6-8.4,10.2h0Zm7.7,203.4h0c1,0,1.8,0,2.5,.3-.7-.2-1.5-.5-2.4-.9-2.3-1-6.7-10.1-6.5-11.5,1.1,1.4,1,2.7,3.4,3.7,1.6,.7,3.7,1.5,5.3,2.2,4.6,2,2,5.7,5.2,7.2v.5c0,0-1.7-.7-1.7-.7-.5-.1-1.8,0-3.4-.4,1.6,.4,2.7,1.1,3.2,1.2h1.8c0,.1-.2,.5-.2,.5-3.6-.1-2.9,4.3-7.9,4-1.7-.1-4-.4-5.7-.5-2.6-.2-3.1,1.1-4.7,1.8,.5-1.4,8.5-7.4,11-7.2h0Zm-12.9-4.6h0c-2.5-.5-11.2,4.5-11.9,5.8,1.6-.5,2.4-1.7,4.9-1.2,1.7,.3,3.9,.9,5.6,1.2,4.9,1,4.8-3.5,8.4-2.9l.2-.4-1.8-.3c-.5-.2-1.4-1-2.9-1.5,1.5,.6,2.7,.6,3.2,.8l1.5,.9v-.4c-2.9-1.9,.2-5.2-4.1-7.8-1.5-.9-3.5-2-5-2.8-2.2-1.3-2-2.7-2.9-4.1-.4,1.4,2.8,10.9,5,12.2,.8,.6,1.5,1,2.2,1.2-.7-.3-1.5-.5-2.5-.6h0Zm-12.2-6.2h0c.9,.2,1.7,.5,2.4,.9-3.8-2.1-6.5-11.7-5.5-14.2,.7,1.6,.3,2.9,2.3,4.5,1.4,1.1,3.2,2.4,4.6,3.4,3.9,3.1,.5,6,3.3,8.3l-.2,.4-1.4-1.1c-.5-.2-1.7-.4-3.2-1.2,1.5,.8,2.3,1.7,2.8,1.9l1.7,.6-.3,.4c-3.4-1-3.9,3.4-8.7,1.9-1.6-.5-3.8-1.4-5.4-1.9-2.4-.8-3.3,.2-5,.5,.8-1.2,10.1-5,12.5-4.3h0Zm-11.3-7.7h0c-2.3-1.1-12,1.5-12.9,2.7,1.7,0,2.7-1,5,0,1.5,.7,3.6,1.9,5.1,2.6,4.5,2.2,5.6-2.2,8.8-.8l.3-.3-1.6-.8c-.4-.3-1.1-1.3-2.5-2.3,1.3,.9,2.5,1.3,3,1.6l1.3,1.3,.2-.4c-2.5-2.6,1.3-5-2.2-8.6-1.2-1.2-2.9-2.8-4.1-4-1.8-1.8-1.3-3.1-1.7-4.7-.7,1.3,0,11.3,1.8,13.1,.6,.7,1.2,1.3,1.8,1.7-.6-.4-1.4-.8-2.2-1.2h0Zm-10.3-9h0c.9,.4,1.5,1,2.1,1.5-.6-.5-1.1-1.2-1.6-2-1.5-2-1-12,0-13.2,.3,1.7-.4,2.9,1.1,4.9,1.1,1.4,2.6,3.1,3.6,4.5,3,4-1,5.9,1.1,8.8l-.3,.4-1.1-1.4c-.4-.4-1.5-.8-2.8-2,1.2,1.1,1.8,2.2,2.2,2.6l1.5,1-.3,.3c-3.1-1.8-4.7,2.4-8.9-.4-1.5-.9-3.3-2.3-4.8-3.2-2.2-1.4-3.3-.6-5-.7,1.1-1,11-2.4,13.2-1h0Zm-9.1-10.3h0c.8,.5,1.4,1.1,1.9,1.7-.5-.6-1-1.3-1.4-2.2-1.3-2.2,.5-12.1,1.6-13.1,0,1.7-.8,2.8,.5,5,.9,1.5,2.1,3.4,3,4.9,2.5,4.3-1.7,5.7,0,8.9l-.3,.3-.9-1.6c-.3-.4-1.4-1-2.5-2.3,1.1,1.3,1.5,2.4,1.9,2.8l1.4,1.1-.4,.3c-2.8-2.2-4.9,1.7-8.8-1.5-1.3-1.1-3-2.7-4.3-3.8-2-1.7-3.2-1-4.9-1.3,1.2-.9,11.2-1,13.2,.6h0Zm-7.7-11.3h0c.7,.6,1.3,1.3,1.7,1.9,.9,1.4,1.9,2.2,2.2,2.6l.7,1.7,.4-.3c-1.3-3.3,3.1-4.2,1.1-8.8-.7-1.6-1.7-3.7-2.4-5.2-1-2.4,0-3.3,.1-5-1.2,.9-4.2,10.5-3.2,12.8,.3,.9,.7,1.7,1.1,2.3,.9,1.4,1.2,2.6,1.5,3l1.2,1.3-.4,.2c-2.5-2.6-5.1,1.1-8.5-2.6-1.2-1.3-2.6-3-3.8-4.3-1.7-1.9-3-1.4-4.6-1.9,1.3-.7,11.3,.5,13,2.3h0Zm-6.2-12.2h0c2,2.3,2.2,4.7,2.5,5.3l1,1.5-.4,.2c-2.2-2.8-5.2,.5-8.1-3.6-1-1.4-2.2-3.3-3.2-4.8-1.5-2.1-2.8-1.8-4.4-2.5,1.4-.5,11.1,1.9,12.6,3.9h0Zm.6-.3h0c-.7-2.4,3.5-11.6,4.8-12.3-.4,1.7-1.5,2.5-.8,5,.5,1.7,1.2,3.8,1.7,5.5,1.4,4.8-3.1,5.1-2.2,8.6l-.4,.2-.5-1.7c-.3-.7-2.1-2.2-2.6-5.3h0Zm-5.3-12.6h0c-1.2-2.2-10.6-5.8-12-5.5,1.4,.9,2.8,.8,4,3,.8,1.5,1.8,3.6,2.6,5.1,2.4,4.4,5.8,1.5,7.6,4.6h.4c0,0-.9-1.7-.9-1.7-.2-.5-.1-1.7-.7-3.3,.5,1.6,1.3,2.6,1.5,3.1l.3,1.8,.4-.2c-.4-3.6,4-3.3,3.3-8.2-.3-1.7-.7-4-1-5.7-.4-2.5,.8-3.2,1.4-4.8-1.3,.6-6.7,9.1-6.3,11.6,0,1,.2,1.8,.5,2.5-.2-.7-.6-1.5-1.1-2.3h0Zm-3-13.4h0c.4,.9,.7,1.7,.8,2.4-.1-.7-.2-1.6-.2-2.6,0-2.5,6.3-10.3,7.7-10.7-.8,1.5-2,2.1-2,4.6,0,1.7,.2,4,.3,5.7,.1,5-4.3,4.2-4.3,7.8h-.4c0,.1,0-1.7,0-1.7,0-.5-.7-1.6-1.1-3.2,.3,1.6,.1,2.9,.3,3.4l.7,1.7h-.5c-1.4-3.3-5.1-.8-7-5.5-.6-1.6-1.3-3.8-2-5.4-.9-2.4-2.3-2.4-3.6-3.5,1.5-.2,10.3,4.6,11.2,6.9h0Zm-1.3-13.6h0c-.6-2.4-8.8-8.3-10.3-8.3,1.2,1.3,2.5,1.5,3.1,3.9,.4,1.7,.8,3.9,1.3,5.6,1.2,4.9,5.2,2.9,6.2,6.3h.5s-.4-1.7-.4-1.7c0-.5,.3-1.7,.2-3.4,0-.7,0-1.6,.2-2.5,.3-2.5,7.5-9.4,9-9.7-1,1.4-2.3,1.8-2.5,4.4-.2,1.7-.3,4-.4,5.7-.5,5-4.8,3.6-5.2,7.2h-.5c0,0,.2-1.7,.2-1.7,0-.5-.5-1.7-.7-3.3,0-.7-.2-1.6-.5-2.5h0Zm.5-13.7h0c-.3-2.5-7.7-9.3-9.1-9.5,1,1.4,2.3,1.8,2.6,4.3,.2,1.7,.3,4,.5,5.7,.6,5,4.8,3.5,5.4,7.1h.5c0,0-.2-1.7-.2-1.7,0-.5,.5-1.7,.6-3.3,0-.8,.2-1.6,.5-2.5,.6-2.5,8.7-8.4,10.1-8.5-1.1,1.3-2.5,1.5-3.1,4-.4,1.7-.8,3.9-1.2,5.6-1.1,4.9-5.2,3-6.1,6.4h-.5s.4-1.7,.4-1.7c0-.5-.3-1.7-.2-3.4,0-.8,0-1.6-.2-2.5h0Zm2.2-13.5h0c0-2.5-6.5-10.2-7.9-10.6,.8,1.5,2.1,2,2.1,4.6,0,1.7-.2,4-.2,5.7,0,5,4.4,4.1,4.4,7.7h.4c0,.1,0-1.7,0-1.7,0-.5,.7-1.6,1-3.2,.1-.7,.4-1.6,.8-2.4,.9-2.4,9.6-7.3,11.1-7.1-1.3,1.1-2.7,1.2-3.5,3.6-.6,1.6-1.3,3.8-1.9,5.4-1.7,4.7-5.5,2.3-6.9,5.6h-.5s.6-1.7,.6-1.7c0-.5-.1-1.7,.2-3.4,.1-.7,.2-1.6,.1-2.6h0Zm3.8-13.1h0c0,1-.2,1.8-.4,2.5-.5,1.6-.5,2.8-.6,3.3l-.8,1.6h.4c1.7-3,5.2-.2,7.5-4.6,.8-1.5,1.7-3.6,2.5-5.2,1.2-2.3,2.5-2.1,4-3.1-1.4-.3-10.7,3.4-11.9,5.7-.5,.8-.9,1.6-1.1,2.3-.5,1.6-1.3,2.6-1.4,3.1l-.2,1.8-.4-.2c.4-3.6-4.1-3.2-3.4-8.2,.2-1.7,.7-4,.9-5.7,.4-2.5-.8-3.2-1.5-4.8,1.4,.6,6.8,9,6.5,11.5h0Zm5.5-12.6h0c-.2,1-.4,1.8-.7,2.4-.7,1.5-.8,2.7-1,3.2l-1,1.5h.4c2.1-2.7,5.2,.5,8-3.6,1-1.4,2.2-3.4,3.2-4.8,1.5-2.1,2.8-1.8,4.3-2.6-1.4-.5-11.1,2.1-12.5,4.1-.6,.7-1.1,1.5-1.4,2.2-.7,1.5-1.6,2.4-1.8,2.9l-.5,1.7-.4-.2c.8-3.5-3.7-3.7-2.4-8.6,.4-1.7,1.2-3.9,1.6-5.5,.7-2.5-.4-3.3-.8-5,1.3,.7,5.6,9.8,5,12.2h0Zm7-11.8h0c.9-2.3-2.2-11.9-3.4-12.7,.2,1.7,1.2,2.7,.2,5-.7,1.6-1.6,3.7-2.3,5.3-1.9,4.6,2.5,5.4,1.3,8.8l.4,.3,.7-1.7c.3-.4,1.3-1.2,2.1-2.6,.4-.6,.9-1.3,1.6-2,1.7-1.9,11.6-3.2,13-2.5-1.6,.6-2.9,.1-4.6,2-1.1,1.3-2.6,3.1-3.7,4.4-3.3,3.7-6,0-8.5,2.7l-.4-.2,1.2-1.3c.3-.4,.6-1.7,1.4-3.1,.4-.6,.8-1.4,1.1-2.3h0Zm8.4-10.8h0c1.2-2.2-.7-12.1-1.8-13.1,0,1.7,.8,2.8-.4,5-.8,1.5-2.1,3.4-2.9,4.9-2.5,4.4,1.8,5.7,.2,8.9l.3,.3,.9-1.6c.3-.4,1.4-1.1,2.4-2.3-1,1.3-1.5,2.5-1.8,2.9l-1.4,1.2,.4,.3c2.8-2.3,4.9,1.7,8.7-1.6,1.3-1.1,3-2.7,4.3-3.9,1.9-1.7,3.1-1,4.8-1.4-1.2-.8-11.3-.8-13.2,.9-.8,.6-1.4,1.2-1.9,1.7,.5-.6,.9-1.3,1.3-2.2h0Zm9.7-9.6h0c1.5-2,.8-12-.1-13.2-.3,1.7,.5,2.9-1.1,4.9-1,1.4-2.5,3.1-3.5,4.5-3,4,1.1,5.9-1,8.8l.3,.4,1.1-1.4c.4-.4,1.5-.9,2.7-2-1.2,1.1-1.8,2.3-2.1,2.6l-1.5,1,.3,.3c3-1.9,4.7,2.3,8.9-.5,1.4-1,3.3-2.3,4.7-3.3,2.1-1.4,3.3-.6,5-.8-1.1-1-11.1-2.2-13.2-.8-.8,.5-1.5,1-2.1,1.5,.5-.5,1.1-1.2,1.6-2h0Zm10.9-8.3h0c-.6,.8-1.2,1.3-1.8,1.8-1.3,1-2,2-2.5,2.3l-1.6,.8,.3,.3c3.3-1.5,4.4,2.8,8.9,.6,1.5-.8,3.5-1.9,5.1-2.7,2.3-1.2,3.3-.2,5-.2-1-1.1-10.7-3.6-13-2.4-.9,.3-1.6,.8-2.2,1.2-1.3,1-2.5,1.3-3,1.7l-1.2,1.3-.2-.4c2.4-2.7-1.4-5,2.1-8.6,1.2-1.3,2.9-2.8,4.1-4.1,1.8-1.8,1.2-3.1,1.7-4.8,.8,1.2,.2,11.3-1.5,13.1h0Zm11.8-6.9h0c2-1.6,3.8-11.5,3.2-12.8-.7,1.6-.2,2.9-2.3,4.5-1.3,1.1-3.2,2.4-4.6,3.5-3.9,3.2-.4,6-3.1,8.3l.2,.4,1.4-1.1c.5-.3,1.7-.5,3.1-1.3-1.4,.8-2.3,1.7-2.7,2l-1.7,.6,.3,.4c3.4-1.1,4,3.4,8.7,1.7,1.6-.6,3.8-1.5,5.4-2,2.4-.9,3.3,.2,5,.5-.8-1.2-10.2-4.9-12.6-4.1-.9,.2-1.7,.6-2.4,.9,.7-.4,1.4-.9,2-1.5h0Zm32.1,204.4h0c-2.5,.2-9.8,7.1-10,8.6,1.5-.9,1.9-2.2,4.5-2.4,1.7,0,4,0,5.7-.2,5-.3,3.8-4.6,7.4-4.9v-.4c0,0-1.7,.1-1.7,.1-.5,0-1.6-.6-3.3-.8,1.6,.2,2.9,0,3.4,0l1.7,.5v-.5c-3.4-1.1-1.3-5.1-6.1-6.5-1.7-.5-3.9-1-5.6-1.5-2.5-.7-2.6-2.1-3.8-3.3,0,1.5,5.4,9.9,7.8,10.6,.9,.4,1.7,.5,2.5,.6-.7,0-1.6,0-2.6,0h0Zm46.9-2.9h0c-1,0-1.8,0-2.5,.3,.7-.2,1.5-.5,2.4-.9,2.3-1,6.7-10.1,6.5-11.5-1.1,1.4-1,2.7-3.4,3.7-1.6,.7-3.7,1.5-5.3,2.2-4.6,2-2,5.7-5.2,7.2v.5c0,0,1.7-.7,1.7-.7,.5-.1,1.7,0,3.3-.4-1.6,.4-2.6,1.1-3.1,1.2h-1.8c0,.1,.2,.5,.2,.5,3.6-.1,2.9,4.3,7.9,4,1.7-.1,4-.4,5.7-.5,2.6-.2,3.1,1.1,4.7,1.8-.5-1.4-8.5-7.4-11-7.2h0Zm12.9-4.6h0c2.5-.5,11.2,4.5,11.9,5.8-1.6-.5-2.4-1.7-4.9-1.2-1.7,.3-3.9,.9-5.6,1.2-4.9,1-4.8-3.5-8.4-2.9l-.2-.4,1.8-.3c.5-.2,1.4-1,2.9-1.5-1.5,.6-2.7,.6-3.2,.8l-1.5,.9v-.4c2.9-1.9-.1-5.2,4.2-7.8,1.5-.9,3.5-2,5-2.8,2.2-1.3,2-2.7,2.9-4.1,.4,1.4-2.8,10.9-5,12.2-.8,.6-1.5,1-2.2,1.2,.7-.3,1.5-.5,2.5-.6h0Zm12.2-6.2h0c-.9,.2-1.7,.5-2.4,.9,.7-.4,1.4-.8,2.1-1.5,2-1.6,4-11.4,3.4-12.8-.7,1.6-.3,2.9-2.3,4.5-1.4,1.1-3.2,2.4-4.6,3.4-3.9,3.1-.5,6-3.3,8.3l.2,.4,1.4-1.1c.5-.2,1.7-.4,3.2-1.2-1.5,.8-2.3,1.7-2.8,1.9l-1.7,.6,.3,.4c3.4-1,3.9,3.4,8.7,1.9,1.6-.5,3.8-1.4,5.4-1.9,2.4-.8,3.3,.2,5,.5-.8-1.2-10.1-5-12.5-4.3h0Zm11.3-7.7h0c2.3-1.1,12,1.5,12.9,2.7-1.7,0-2.7-1-5,0-1.5,.7-3.6,1.9-5.1,2.6-4.5,2.2-5.6-2.2-8.8-.8l-.3-.4,1.6-.8c.4-.3,1.1-1.3,2.5-2.3-1.4,1-2.6,1.3-3,1.6l-1.3,1.3-.2-.4c2.5-2.6-1.3-5,2.2-8.6,1.2-1.2,2.9-2.8,4.1-4,1.8-1.8,1.3-3.1,1.7-4.7,.7,1.3,0,11.3-1.8,13.1-.6,.7-1.3,1.3-1.9,1.7,.6-.4,1.4-.9,2.3-1.2h0Zm10.3-9h0c-.9,.4-1.5,1-2.1,1.5,.6-.5,1.1-1.2,1.6-2,1.5-2,1-12,0-13.2-.3,1.7,.4,2.9-1.1,4.9-1.1,1.4-2.6,3.1-3.6,4.5-3,4,1,5.9-1.1,8.8l.3,.4,1.1-1.4c.4-.4,1.5-.8,2.7-2-1.2,1.1-1.8,2.2-2.2,2.6l-1.5,1,.3,.3c3.1-1.9,4.7,2.4,8.9-.4,1.5-.9,3.3-2.3,4.8-3.2,2.2-1.4,3.3-.6,5-.7-1.1-1-11-2.4-13.2-1h0Zm9.1-10.3h0c1.9-1.6,12-1.5,13.2-.7-1.7,.3-2.9-.3-4.9,1.3-1.3,1.1-3,2.7-4.3,3.8-3.8,3.2-5.9-.8-8.8,1.5l-.4-.3,1.4-1.1c.3-.4,.8-1.6,1.9-2.8,.5-.6,1-1.3,1.4-2.2,1.3-2.2-.5-12.1-1.6-13.1,0,1.7,.8,2.8-.5,5-.9,1.5-2.1,3.4-3,4.9-2.5,4.3,1.7,5.7,0,8.9l.3,.3,.9-1.5c.3-.4,1.4-1,2.5-2.3,.5-.6,1.1-1.2,1.9-1.7h0Zm7.7-11.3h0c-.7,.6-1.3,1.3-1.7,1.9-.9,1.4-1.9,2.2-2.2,2.6l-.7,1.7-.4-.3c1.3-3.3-3.1-4.2-1.1-8.8,.7-1.6,1.7-3.7,2.4-5.2,1-2.4,0-3.3-.1-5,1.2,.9,4.2,10.5,3.2,12.8-.3,.9-.7,1.7-1.1,2.3-.9,1.4-1.2,2.6-1.5,3l-1.2,1.3,.4,.2c2.5-2.6,5.1,1.1,8.5-2.6,1.2-1.3,2.6-3,3.8-4.3,1.7-1.9,3-1.4,4.6-1.9-1.3-.7-11.3,.5-13,2.3h0Zm6.2-12.2h0c-.6,.7-1.1,1.5-1.4,2.1-.7,1.5-1.6,2.4-1.8,2.8l-.5,1.7-.4-.2c.9-3.5-3.6-3.8-2.2-8.6,.5-1.7,1.2-3.8,1.7-5.5,.7-2.5-.4-3.3-.8-5,1.3,.7,5.5,9.9,4.8,12.3-.2,.9-.5,1.8-.8,2.4-.7,1.5-.9,2.7-1.1,3.2l-1,1.5,.4,.2c2.2-2.9,5.2,.5,8.1-3.6,1-1.4,2.2-3.4,3.2-4.8,1.5-2.1,2.8-1.7,4.4-2.5-1.4-.5-11.1,1.9-12.6,3.9h0Zm4.6-12.9h0c-.5,.8-.9,1.6-1.1,2.3-.5,1.6-1.3,2.6-1.5,3.1l-.3,1.8-.4-.2c.4-3.6-4-3.3-3.3-8.2,.3-1.7,.7-4,1-5.7,.4-2.5-.8-3.2-1.4-4.8,1.3,.6,6.7,9.1,6.3,11.6,0,1-.2,1.8-.5,2.5-.5,1.6-.5,2.8-.7,3.3l-.9,1.6h.4c1.8-3,5.2,0,7.6-4.5,.8-1.5,1.8-3.6,2.6-5.1,1.2-2.3,2.6-2.1,4-3-1.4-.3-10.8,3.3-12,5.5h0Zm3-13.4h0c-.4,.9-.7,1.7-.8,2.4,.1-.7,.2-1.6,.2-2.5,0-2.5-6.3-10.3-7.7-10.7,.8,1.5,2,2.1,2,4.6,0,1.7-.2,4-.3,5.7-.1,5,4.3,4.2,4.3,7.8h.4c0,.1,0-1.7,0-1.7,0-.5,.7-1.6,1.1-3.2-.3,1.6-.1,2.9-.3,3.4l-.7,1.7h.5c1.4-3.3,5.1-.8,7-5.5,.6-1.6,1.3-3.8,2-5.4,.9-2.4,2.3-2.4,3.6-3.5-1.5-.2-10.3,4.6-11.2,6.9h0Zm1.3-13.6h0c.6-2.4,8.8-8.3,10.3-8.3-1.2,1.3-2.5,1.4-3.1,3.9-.4,1.7-.8,3.9-1.3,5.6-1.2,4.9-5.2,2.9-6.2,6.3h-.5s.4-1.7,.4-1.7c0-.8-.7-3,.4-5.9h0Zm-.7,0h0c.6,3-.4,5.1-.5,5.9l.2,1.8h-.5c-.5-3.6-4.7-2.3-5.2-7.2-.2-1.7-.3-4-.4-5.7-.3-2.6-1.6-2.9-2.5-4.4,1.4,.2,8.7,7.2,9,9.7h0Zm.2-13.6h0c-.2,.9-.2,1.8-.2,2.5,0-.8-.2-1.6-.5-2.5-.6-2.5-8.7-8.4-10.1-8.5,1.1,1.3,2.5,1.5,3.1,4,.4,1.7,.8,3.9,1.2,5.6,1.1,4.9,5.2,3,6.1,6.4h.5s-.4-1.7-.4-1.7c0-.5,.3-1.7,.2-3.4,0,1.7,.6,2.8,.6,3.3l-.2,1.8h.5c.5-3.6,4.8-2.2,5.4-7.1,.2-1.7,.3-4,.5-5.7,.3-2.6,1.6-2.9,2.6-4.3-1.5,.2-8.8,7-9.1,9.5h0Zm-2.2-13.5h0c0,1,0,1.8,.1,2.6,.3,1.6,0,2.9,.2,3.4l.6,1.7h-.5c-1.3-3.3-5.1-.9-6.9-5.6-.6-1.6-1.3-3.8-1.9-5.4-.9-2.4-2.3-2.4-3.5-3.6,1.5-.1,10.2,4.8,11.1,7.1,.4,.9,.7,1.7,.8,2.4,.3,1.6,.9,2.7,1,3.2v1.8s.5-.1,.5-.1c0-3.6,4.5-2.7,4.4-7.7,0-1.7-.2-4-.2-5.7,0-2.6,1.2-3.1,2-4.6-1.4,.4-7.9,8.1-7.9,10.6h0Zm-3.9-13.1h0c0,1,.2,1.8,.4,2.5,.5,1.6,.5,2.8,.6,3.3l.8,1.6h-.4c-1.7-3-5.2-.2-7.5-4.6-.8-1.5-1.7-3.6-2.5-5.2-1.2-2.3-2.5-2.1-4-3.1,1.4-.3,10.7,3.4,11.9,5.7,.5,.8,.9,1.6,1.1,2.3,.5,1.6,1.3,2.6,1.4,3.1l.2,1.8,.4-.2c-.4-3.6,4.1-3.2,3.4-8.2-.2-1.7-.7-4-.9-5.7-.4-2.5,.8-3.2,1.5-4.8-1.4,.6-6.8,9-6.5,11.5h0Zm-5.5-12.6c.2,1,.4,1.8,.7,2.4,.7,1.5,.8,2.7,1,3.2l1,1.5h-.4c-2.1-2.7-5.2,.5-8.1-3.6-1-1.4-2.2-3.4-3.2-4.8-1.5-2.1-2.8-1.8-4.3-2.6,1.4-.5,11.1,2.1,12.5,4.1,.6,.7,1.1,1.5,1.4,2.2,.7,1.5,1.6,2.4,1.8,2.9l.5,1.7,.4-.2c-.8-3.5,3.7-3.7,2.4-8.6-.4-1.7-1.2-3.9-1.6-5.5-.7-2.5,.4-3.3,.8-5-1.3,.7-5.6,9.8-5,12.2h0Zm-7-11.8h0c.3,.9,.7,1.7,1.1,2.3,.9,1.4,1.2,2.6,1.4,3.1l1.2,1.3-.4,.2c-2.5-2.6-5.1,1-8.5-2.7-1.2-1.3-2.6-3.1-3.7-4.4-1.7-1.9-3-1.4-4.6-2,1.3-.7,11.3,.7,13,2.5,.7,.7,1.2,1.3,1.6,2,.9,1.4,1.9,2.2,2.1,2.6l.7,1.7,.4-.3c-1.3-3.4,3.2-4.1,1.3-8.8-.7-1.6-1.6-3.7-2.3-5.3-1-2.4,0-3.3,.2-5-1.2,.9-4.3,10.4-3.4,12.7h0Zm-8.4-10.8h0c-1.2-2.2,.7-12.1,1.8-13.1,0,1.7-.8,2.8,.4,5,.8,1.5,2.1,3.4,2.9,4.9,2.5,4.4-1.8,5.7-.2,8.9l-.3,.3-.9-1.6c-.3-.4-1.4-1.1-2.4-2.3,1,1.3,1.5,2.5,1.8,2.9l1.4,1.2-.4,.3c-2.8-2.3-4.9,1.7-8.7-1.6-1.3-1.1-3-2.7-4.3-3.9-1.9-1.7-3.1-1-4.8-1.4,1.2-.8,11.3-.8,13.2,.9,.8,.6,1.4,1.2,1.9,1.7-.5-.6-.9-1.3-1.3-2.2h0Zm-9.7-9.6h0c-1.5-2-.8-12,.1-13.2,.2,1.7-.5,2.9,1.1,4.9,1,1.4,2.5,3.1,3.5,4.5,3,4-1.1,5.9,.9,8.8l-.3,.4-1.1-1.4c-.4-.4-1.5-.9-2.7-2,1.2,1.1,1.8,2.3,2.1,2.6l1.5,1-.3,.3c-3-1.9-4.7,2.3-8.9-.5-1.4-1-3.3-2.3-4.7-3.3-2.1-1.4-3.3-.6-5-.8,1.1-1,11.1-2.2,13.2-.8,.8,.5,1.5,1,2.1,1.5-.5-.5-1.1-1.2-1.6-2h0Zm-10.9-8.4h0c-1.7-1.8-2.3-11.9-1.5-13.1,.5,1.7-.1,2.9,1.7,4.8,1.2,1.2,2.9,2.8,4.1,4.1,3.5,3.6-.4,6,2.1,8.6l-.2,.4-1.2-1.3c-.4-.3-1.6-.7-3-1.7-.6-.4-1.3-.9-2.2-1.2-2.3-1.1-12,1.3-13,2.4,1.7,0,2.7-1,5,.2,1.5,.8,3.5,1.9,5.1,2.7,4.5,2.2,5.6-2.1,8.9-.6l.3-.3-1.6-.8c-.4-.3-1.1-1.3-2.5-2.3-.6-.4-1.2-1-1.8-1.8h0Zm-11.8-6.9h0c-1.9-1.6-3.8-11.5-3.2-12.8,.7,1.6,.2,2.9,2.3,4.5,1.3,1.1,3.2,2.4,4.6,3.5,3.9,3.1,.4,6,3.1,8.3l-.2,.4-1.4-1.1c-.5-.3-1.7-.5-3.1-1.3-.7-.4-1.4-.7-2.4-.9-2.4-.8-11.7,2.8-12.6,4.1,1.7-.3,2.6-1.3,5-.5,1.6,.6,3.7,1.5,5.4,2,4.7,1.6,5.3-2.8,8.7-1.7l.3-.4-1.7-.6c-.5-.2-1.3-1.2-2.7-2-.7-.4-1.4-.9-2-1.5Z"></path><path class="uuid-721335a6-f277-4305-8c9e-97e29d3d5711" d="M287.8,16.9c-2.4,1.2-4.8,2.4-7.3,3.6-2.8,1.3-5.7,2.5-8.5,3.6-3.3,1.3-6.6,2.5-10,3.6-3.4,1.1-6.9,2.1-10.4,3.1-3.4,.9-7,1.7-10.6,2.5-3.6,.7-7.2,1.4-11,2-3.3,.5-6.5,1-9.6,1.3-2.7,.3-5.4,.6-8.1,.8v113c0,2.5,.4,5.1,1.1,7.7,.8,2.8,2,5.5,3.5,8.3,1.7,3.1,3.8,6.1,6.1,9.1,2.6,3.2,5.5,6.5,8.7,9.6,3.6,3.5,7.5,7,11.6,10.3,4.5,3.6,9.3,7.1,14,10.4,5.2,3.6,10.5,6.9,15.5,9.8,5.6,3.3,10.9,6.2,15.5,8.6,4.6-2.4,9.9-5.2,15.4-8.5,5-2.9,10.2-6.2,15.5-9.8,4.8-3.3,9.5-6.7,14.1-10.4,4.1-3.3,8-6.7,11.6-10.3,3.2-3.1,6.1-6.4,8.7-9.6,2.4-3,4.5-6.1,6.1-9.2,1.5-2.7,2.7-5.5,3.5-8.3,.7-2.6,1.1-5.1,1.1-7.7V37.6c-2.8-.1-5.5-.3-8.1-.5-3.3-.3-6.5-.6-9.6-1-3.7-.5-7.4-1-11.2-1.7-3.7-.7-7.3-1.4-10.8-2.3-3.7-.9-7.2-1.9-10.6-3.1-3.4-1.1-6.8-2.4-10.1-3.8-3-1.3-5.9-2.6-8.7-4.1-2.5-1.3-4.9-2.7-7.3-4.2h0Zm-8.8,.1h0c2.7-1.2,5.4-2.6,8.1-4l1-.5,.9,.6c2.6,1.7,5.2,3.2,7.9,4.7,2.7,1.4,5.5,2.8,8.4,4,3.2,1.4,6.5,2.6,9.9,3.7,3.4,1.1,6.9,2.1,10.3,3,3.5,.9,7,1.6,10.6,2.3,3.5,.6,7.2,1.2,10.9,1.6,3.1,.4,6.3,.7,9.5,.9,3.3,.3,6.6,.4,9.8,.6h1.8v116.4c0,2.9-.5,5.8-1.3,8.7-.9,3-2.2,6-3.8,9-1.8,3.3-4,6.5-6.5,9.7-2.7,3.4-5.7,6.7-9,10-3.7,3.6-7.7,7.2-11.9,10.5-4.6,3.7-9.5,7.3-14.3,10.6-5.3,3.6-10.6,7-15.7,9.9-6,3.6-11.7,6.6-16.5,9.1l-.9,.4-.9-.4c-4.8-2.5-10.5-5.5-16.5-9.1-5-3-10.3-6.3-15.7-9.9-4.8-3.3-9.7-6.8-14.3-10.5-4.2-3.4-8.2-6.9-11.9-10.5-3.3-3.2-6.3-6.6-9-10-2.5-3.2-4.7-6.4-6.5-9.7-1.6-3-2.9-6-3.8-9-.8-2.9-1.3-5.8-1.3-8.7V33.9h1.7c3.3-.4,6.5-.7,9.7-1.1,3.3-.4,6.4-.8,9.5-1.3,3.6-.6,7.3-1.2,10.8-2,3.5-.7,7-1.6,10.4-2.5,3.5-.9,6.9-1.9,10.2-3,3.3-1.1,6.6-2.3,9.8-3.5,2.9-1.1,5.6-2.3,8.3-3.5h0Zm-31.3-1.4h0c3.3-.9,6.6-1.9,9.8-2.9,3.2-1.1,6.4-2.2,9.4-3.4,3-1.2,6-2.5,8.9-3.9,2.9-1.4,5.7-2.8,8.5-4.3,.6-.4,1.3-.7,2.1-.9,.7-.2,1.5-.3,2.2-.3,.8,0,1.5,.1,2.3,.4,.7,.2,1.4,.6,2.1,1,2.6,1.8,5.3,3.5,8,5,2.8,1.5,5.6,3,8.6,4.2,3,1.3,6,2.5,9.2,3.5,3.1,1,6.4,2,9.7,2.8,3.3,.8,6.8,1.6,10.3,2.2,3.5,.6,7.1,1.1,10.7,1.6,3.7,.4,7.4,.8,11.2,1,3.8,.3,7.6,.4,11.4,.5h0s.1,0,.1,0h.1c1.1,0,2.1,.2,3,.6,1,.4,1.8,1,2.5,1.7,.7,.7,1.3,1.6,1.7,2.5h0c.4,.9,.6,1.9,.6,3v120.3c0,3.8-.6,7.6-1.6,11.4-1.1,3.9-2.7,7.8-4.7,11.6-2.1,3.9-4.6,7.7-7.5,11.4-3.1,4-6.6,7.8-10.3,11.5-4,3.9-8.3,7.7-12.8,11.3-5,4-10.2,7.8-15.5,11.3-6.1,4.1-12.1,7.9-17.8,11.1-6.9,4-13.4,7.4-18.6,10h-.4c0,.1-1.6,.5-1.6,.5h0s0,0,0,0h0c0,0-1.7,.5-3.9-.6-5.3-2.6-11.7-6-18.6-10.1-5.6-3.3-11.7-7-17.7-11.1-5.2-3.5-10.5-7.3-15.4-11.3-4.5-3.6-8.8-7.4-12.8-11.3-3.8-3.7-7.2-7.5-10.3-11.5-2.9-3.7-5.4-7.5-7.5-11.4-2-3.8-3.6-7.7-4.7-11.6-1-3.8-1.6-7.6-1.6-11.4v-1.9h0V30.1c0-1,.2-2,.6-2.9h0c.4-.9,.9-1.8,1.6-2.5,.7-.7,1.5-1.3,2.4-1.7,.3-.2,.7-.3,1.1-.4v-.2h1.8c3.9-.3,7.7-.6,11.5-1,3.7-.4,7.5-.9,11.2-1.4,3.7-.6,7.3-1.2,10.7-1.9,3.5-.7,6.9-1.5,10.2-2.4h0Zm11,.7h0c3.2-1.1,6.4-2.2,9.6-3.5,3.1-1.2,6.2-2.6,9.1-4,3-1.4,5.9-2.9,8.7-4.5h0c.3-.2,.7-.4,1.1-.5,.4-.1,.8-.1,1.2-.1,.4,0,.8,0,1.2,.2,.4,.1,.7,.3,1.1,.5,2.7,1.9,5.5,3.6,8.4,5.2,2.9,1.6,5.9,3.1,8.9,4.4,3.1,1.3,6.2,2.5,9.5,3.6,3.3,1.1,6.6,2.1,10,2.9,3.5,.9,7,1.6,10.5,2.2,3.6,.6,7.2,1.2,11,1.6,3.7,.4,7.5,.8,11.4,1,3.8,.2,7.6,.4,11.6,.5h0s.1,0,.1,0h0s0,0,0,0h0c.5,0,1.1,.1,1.5,.3,.5,.2,.9,.5,1.3,.9,.4,.4,.7,.8,.9,1.3h0c.2,.5,.3,1,.3,1.6v120.3c0,3.5-.5,7-1.5,10.4-1,3.6-2.5,7.3-4.4,10.8-2,3.7-4.4,7.3-7.2,10.8-3,3.8-6.3,7.5-10,11.1-3.9,3.8-8.1,7.5-12.5,11.1-4.9,4-10.1,7.7-15.2,11.2-5.9,4-11.9,7.7-17.5,11-6.8,4-13.1,7.3-18.2,9.8l-1.4,.3h0s0,0,0,0h0c0,0-.4,0-1.2-.3-5.2-2.6-11.5-5.9-18.4-9.9-5.6-3.3-11.6-7-17.5-11-5.1-3.5-10.2-7.2-15.2-11.1-4.4-3.5-8.6-7.2-12.5-11-3.7-3.6-7-7.3-10-11.1-2.8-3.5-5.2-7.1-7.2-10.8-1.9-3.6-3.4-7.2-4.4-10.8-.9-3.2-1.4-6.4-1.4-9.7V30.1c0-.5,.1-1,.3-1.5h0c.2-.5,.5-.9,.8-1.3,.3-.4,.8-.7,1.3-.9,.5-.2,1-.3,1.5-.4h1.8c3.3-.3,6.6-.6,9.9-.9,3.9-.4,7.7-.9,11.4-1.4,3.7-.6,7.3-1.2,10.9-2,3.6-.7,7.1-1.6,10.5-2.5,3.4-.9,6.8-1.9,10-3Z"></path><path class="uuid-b56ddaff-0f2d-44d8-b7c4-a1b67175a968" d="M287.9,14.8c-5.3,2.8-10.9,5.4-16.6,7.6-6.4,2.5-13.2,4.7-20.2,6.6-6.8,1.8-14,3.3-21.4,4.5-6.3,1-12.8,1.7-19.4,2.2v114.8c0,5.6,1.8,11.3,4.8,16.8,3.6,6.6,8.9,13,15.2,19.2,7.7,7.6,16.8,14.6,25.9,20.8,11.6,7.9,23.1,14.4,32,18.9,8.9-4.5,20.4-11,32-18.9,9.1-6.2,18.2-13.3,25.9-20.9,6.3-6.2,11.6-12.6,15.2-19.2,3.1-5.6,4.8-11.3,4.8-16.8V35.8c-6.7-.3-13.2-.8-19.4-1.5-7.5-.9-14.7-2.2-21.7-3.9-7.1-1.8-14-4-20.5-6.8-5.8-2.5-11.4-5.4-16.6-8.8h0Zm-39.8,2.7h0c6.8-1.8,13.2-3.9,19.4-6.4,6.1-2.4,12-5.2,17.6-8.3,1-.6,2.1-.9,3.2-.9,1.1,0,2.3,.4,3.3,1.1,5.3,3.7,11,6.8,17,9.5,6,2.6,12.5,4.7,19.2,6.4,6.8,1.7,13.9,2.9,21.3,3.8,7.4,.9,15,1.4,22.8,1.5h.2s0,0,0,0c1.6,0,3.1,.7,4.2,1.7,1.1,1.1,1.7,2.6,1.7,4.2v120.3c0,7.5-2.2,14.9-6.1,22.1-4.2,7.8-10.3,15.4-17.5,22.4-8.3,8.2-18.2,15.8-28,22.4-13.4,9-26.7,16.4-36.1,21l-1.7,.4s-1,.3-2.6-.4c-9.5-4.7-22.8-12-36.1-21-9.8-6.7-19.7-14.2-27.9-22.4-7.2-7.1-13.3-14.6-17.5-22.4-3.8-7.2-6.1-14.6-6.1-22.1h0V30.1c0-1.6,.6-3,1.6-4.1,1-1.1,2.4-1.8,4-1.9,7.8-.4,15.5-1.2,22.9-2.3,7.4-1.1,14.4-2.6,21.2-4.4Z"></path><path class="uuid-29ae4b8c-7fef-4c54-a827-5361b5ab93cf" d="M288.2,10.4c-11.6,6.3-24.3,11.3-37.9,14.9-13.5,3.6-28.1,5.9-43.6,6.8v118.3c0,13.3,8.8,26.6,21.1,38.7,18.4,18.1,44.4,33.2,60.5,41.3,16.1-8,42.1-23.2,60.5-41.3,12.3-12.1,21.2-25.4,21.2-38.7V32.2c-15.6-.4-30.4-2.1-44-5.5-13.9-3.5-26.6-8.7-37.8-16.4h0Zm-39,10.7h0c13.8-3.7,26.4-8.7,38-15.1,.7-.5,1.7-.5,2.4,0,11,7.7,23.6,13,37.4,16.5,13.9,3.5,29,5.1,45,5.4,0,0,0,0,.1,0,1.2,0,2.2,1,2.2,2.2v120.3c0,14.6-9.4,29-22.5,41.8-19.2,18.9-46.9,34.8-63.2,42.8,0,0-.7,0-.9,0-16.3-8.1-43.9-23.9-63.1-42.7-13.1-12.8-22.5-27.2-22.5-41.8V30.1c0-1.2,.9-2.1,2.1-2.2,16-.9,30.9-3.2,44.8-6.8Z"></path><path class="uuid-edc3da54-f858-4ecc-93c3-e534ff10c936" d="M288.3,7.8c-23.5,13.1-51.5,20.5-83.9,22.3v120.3c0,34.9,57,69.1,83.9,82.5,26.9-13.3,83.9-47.6,83.9-82.5V30.1c-32.5-.7-61.5-6.5-83.9-22.3Z"></path><path class="uuid-869d3eda-31a3-4eef-b661-004c4f3e04cc" d="M287.1,11.7c-11.1,5.8-23,10.4-35.9,13.8-13.5,3.6-28.1,5.9-43.6,6.8v118.3c0,13.3,8.9,26.6,21.1,38.7,17.6,17.3,42.2,31.9,58.4,40.2V11.7Z"></path><g><path class="uuid-62038fac-5d36-425e-843d-d67a621dbdf2" d="M291.5,65.3c-6.3-5.7-15.7-8.6-28.3-8.6s-5.1,0-9.6,.2c-4.5,.1-9.2,.2-14.1,.2s-6.9,0-10.5-.2c-3.6-.1-6.4-.2-8.6-.3v1.6c3.6,0,6.2,1.2,8.1,1.9,1.8,.7,3.1,2.7,3.7,4.5,.6,1.8,.9,4.7,.9,8.5v77.7c0,3.8-.3,6.6-.9,8.4-.6,1.9-1.9,3.9-3.7,4.5s-4.5,1.8-8.1,2v1.6c2.2-.2,5.1-.3,8.6-.4,.8,0,1.5,0,2.3,0,.3,0,.5,0,.8,0,2.6,0,5.4,0,8.3,0,4.3,0,8.5,0,12.7,0s7.6,.2,10.3,.4v-1.6c-.6,0-1.2,0-1.7,0-3.5-.2-6.3-.6-8.3-1.2-2.3-.6-3.8-3.4-4.6-5.3-.6-1.4-.9-3.3-1.1-5.8,0,0,0,0,0,0,0-.8,0-1.7,0-2.6v-28.2h12.1c3.3,0,6.4-.2,9.3-.6,4.1-.5,7.8-1.4,10.9-2.7,.9-.4,1.7-.7,2.5-1.1,4.2-2,7.6-4.5,10.1-7.4,3.1-3.5,5.2-7.3,6.5-11.4,1.3-4.1,1.9-8.1,1.9-11.8,0-9.1-3.1-16.5-9.4-22.2Zm-8.4,38.8c-.8,2.6-2,4.8-3.5,6.8-1.2,1.6-2.7,3-4.5,4.3-2,1.5-4.6,2.6-7.5,3.2-2.8,.7-5.9,1-9.5,1h-10.5v-46.3c0-1.9,0-3.6,.3-5.1,.3-2.7,1-4.6,1.9-5.7,1.5-1.8,4.6-2.7,9.4-2.7s.6,0,.8,0c9.1,.1,15.5,2.6,19.3,7.3,3.9,4.9,5.9,12.3,5.9,22.2s-.7,10.3-2.1,14.9Z"></path><g><path class="uuid-55dbccd9-0664-4155-bbc3-b0f920255e02" d="M293.3,147.1l-1.5,4.1,2.6-1.2-1.1-2.9Zm33.5-81.9v2.1l.6-1.7-.6-.5Z"></path><path class="uuid-399552c4-2f1a-405f-b626-ba07c8e76c4b" d="M293.3,147.1l-9.9-25.9c-4,2.5-8.6,4-13.3,4l16.6,42.6h2.5l37.6-100.5v-2.1l.6,.5-.6,1.7v83.3c0,3.7-.3,6.5-.9,8.4-.6,1.9-1.8,4.6-3.7,5.2-1.8,.6-4.5,1-8,1.2v1.6c2.2-.2,5-.3,8.6-.4,3.5,0,7.3,0,11.4,0s7.3,0,10.8,0c3.6,0,6.6,.2,9,.4v-1.6c-3.5-.2-6.2-.6-8-1.2-1.8-.6-3-3.4-3.7-5.2-.6-1.9-.9-4.7-.9-8.4V73.6c0-3.8,.3-6.6,.9-8.5,.6-1.8,1.8-4.6,3.7-5.2,1.8-.7,4.5-1.1,8-1.2v-1.6c-2.4,.1-5.4,.2-9,.3-3.6,0-7.2,.2-10.8,.2h-7.3l-33.5,89.5"></path></g><path class="uuid-30cee93f-2ffe-4940-8d2c-526ce52dd34d" d="M278.1,108l-16.4-45c-.1,0-.2,0-.4,0-4.8,0-7.9,.9-9.4,2.7-.6,.8-1.1,1.9-1.5,3.4,0,.4,0,.8-.1,1.2,0,.5,0,1.1,.2,1.6l15.5,43.2c.6-.1,1.1-.2,1.7-.3,1.6-.4,3.1-.9,4.4-1.5,.6-.3,1.1-.7,1.6-1,1.7-1.3,3.2-2.7,4.5-4.3Z"></path></g></g><g><path class="uuid-83594609-af03-4c4d-a126-86a6df3afcc0" d="M419.9,422.5h4l-8.3-9h3.4c2.5,0,4.6-1.9,4.6-4.1v-6.6c0-2.3-2.1-4.1-4.6-4.1h-21.1v23.8h3.6v-9h10.2l8.3,9Zm-18.4-20.9h16.7c1.1,0,1.9,.8,1.9,1.8v5.5c0,1-.9,1.8-1.9,1.8h-16.7v-9.1Z"></path><polygon class="uuid-60043556-a7eb-4643-936b-7d11bed4254c" points="252.4 398.9 278.8 398.9 278.8 401.6 267.2 401.6 267.2 422.2 264.1 422.2 264.1 401.6 252.4 401.6 252.4 398.9"></polygon><path class="uuid-60043556-a7eb-4643-936b-7d11bed4254c" d="M201.4,405.3c-.2-2.2-.8-3.8-1.6-4.6-.7-.8-1.9-1.2-3.6-1.5-1.6-.3-4.4-.4-8.4-.4s-5.1,0-7.4,.2c-1.6,0-2.7,.2-3.5,.4-.8,.2-1.4,.5-2,1-.9,.7-1.5,1.7-1.8,3.2-.3,1.5-.5,3.8-.5,6.9s.2,6.1,.5,7.5c.2,.9,.7,1.7,1.3,2.4,.7,.7,1.5,1.1,2.5,1.4,1.7,.4,5.7,.6,12,.6s6.1-.1,7.7-.4c1.6-.3,2.7-.8,3.4-1.5,.7-.7,1.1-1.8,1.4-3.3,.3-1.5,.4-3.6,.4-6.5s0-3.9-.2-5.3Zm-3.3,11.3c-.3,1.4-1.1,2.1-2.4,2.4-1.7,.3-4.5,.5-8.2,.5s-4.6,0-6.7-.2c-2.2-.2-3.6-.5-4.2-1.1-.4-.4-.6-1.2-.8-2.4-.1-1.2-.2-3.1-.2-5.7,0-4.2,.4-6.7,1.2-7.4,.5-.4,1.4-.7,2.7-.9,1.4-.2,3.5-.3,6.4-.3,4.9,0,8,.1,9.6,.3,1.5,.2,2.4,1,2.6,2.3,.2,1.2,.3,3.3,.3,6.5s-.1,4.4-.4,5.9Z"></path><path class="uuid-60043556-a7eb-4643-936b-7d11bed4254c" d="M349.9,405.3c-.2-2.2-.8-3.8-1.6-4.6-.7-.8-1.9-1.2-3.6-1.5-1.6-.3-4.4-.4-8.4-.4s-5.1,0-7.4,.2c-1.6,0-2.7,.2-3.5,.4-.8,.2-1.4,.5-2,1-.9,.7-1.5,1.7-1.8,3.2-.3,1.5-.5,3.8-.5,6.9s.2,6.1,.5,7.5c.2,.9,.7,1.7,1.3,2.4,.7,.7,1.5,1.1,2.5,1.4,1.7,.4,5.7,.6,12,.6s6.1-.1,7.7-.4c1.6-.3,2.7-.8,3.4-1.5,.7-.7,1.1-1.8,1.4-3.3,.3-1.5,.4-3.6,.4-6.5s0-3.9-.2-5.3Zm-3.3,11.3c-.3,1.4-1.1,2.1-2.4,2.4-1.7,.3-4.5,.5-8.2,.5s-4.6,0-6.7-.2c-2.2-.2-3.6-.5-4.2-1.1-.4-.4-.6-1.2-.8-2.4-.1-1.2-.2-3.1-.2-5.7,0-4.2,.4-6.7,1.2-7.4,.5-.4,1.4-.7,2.7-.9,1.4-.2,3.5-.3,6.4-.3,4.9,0,8,.1,9.6,.3,1.5,.2,2.4,1,2.6,2.3,.2,1.2,.3,3.3,.3,6.5s-.1,4.4-.4,5.9Z"></path><polygon class="uuid-60043556-a7eb-4643-936b-7d11bed4254c" points="82.4 398.9 88.7 398.9 101.3 418.6 113.7 398.9 120 398.9 120 422.2 116.9 422.2 116.9 401.7 115.6 401.7 102.6 422.2 100 422.2 86.9 401.7 85.5 401.7 85.5 422.2 82.4 422.2 82.4 398.9"></polygon><path class="uuid-83594609-af03-4c4d-a126-86a6df3afcc0" d="M493.8,412.3c0-2.3-2.3-4.1-5.1-4.1h-14c-1.1,0-2-.8-2-1.8v-4c0-1,.9-1.8,2-1.8h18.5v-2.8h-19.4c-2.8,0-5.1,1.8-5.1,4.1v5.1c0,2.3,2.3,4.1,5.1,4.1h14c1.1,0,2,.8,2,1.8v4c0,1-.9,1.8-2,1.8h-18.8v2.8h19.8c2.8,0,5.1-1.8,5.1-4.1v-5.1Z"></path></g></g></g></svg>