<svg xmlns="http://www.w3.org/2000/svg" xmlns:xlink="http://www.w3.org/1999/xlink" id="uuid-78fe5eee-ca87-4edb-becd-bae21600e7b1" viewBox="0 0 453 119.4"><defs><style>.uuid-406eea17-1141-4045-ab7f-7fd462f5a9f5{fill:url(#uuid-bce0c5e3-bd97-490f-af01-d38e17c111c3);}.uuid-406eea17-1141-4045-ab7f-7fd462f5a9f5,.uuid-27e6bdfe-12e3-4d87-9b70-11e5005eb5e2,.uuid-44c030bf-f49e-429a-9a24-514fa52037a4,.uuid-954a3d79-0164-46e1-aaf9-bbf90b418c7d,.uuid-81909c18-3c36-4b6c-87b8-fb56ee104a2f,.uuid-7a5f84db-9170-4433-b404-1a2ce741acd4,.uuid-a3d58af6-8dd3-438c-8a50-4be31d7f6eac{fill-rule:evenodd;}.uuid-aae9a0d9-13f8-4626-af41-6a6ce69eaa38{fill:url(#uuid-bd3178bc-1ded-4f5c-9d39-ea53086e3c5d);}.uuid-b052af65-11a1-4306-8390-478520d5bc1c{fill:url(#uuid-4adff672-5ad9-489d-a0a8-39b861ff0934);}.uuid-1f762f0d-184a-42b5-8186-6b928acc0ccc,.uuid-81909c18-3c36-4b6c-87b8-fb56ee104a2f{fill:#fff;}.uuid-a0c1b7e1-9173-44a7-bd12-dfdf0bcead06{fill:url(#uuid-511b9d09-9d62-4ea5-8b97-0dd98e58d175);}.uuid-29306fde-ddc8-49bb-a9f0-cfb315852fed{fill:url(#uuid-745ea4a5-9725-44f8-a222-03d035838df4);}.uuid-3dcbe808-ccfb-4c69-9e83-b587f198242a{fill:url(#uuid-eb515a42-0743-410a-b971-bd5e0f1ea822);}.uuid-f7848157-3175-40ae-814e-b4d668fec8cf{fill:url(#uuid-e647a423-6ee9-425a-8c29-b3ee5a6b0ff5);}.uuid-27e6bdfe-12e3-4d87-9b70-11e5005eb5e2{fill:url(#uuid-f0270053-dfce-450f-a166-06e4cf89542c);stroke:#d9a644;stroke-miterlimit:22.9;stroke-width:.2px;}.uuid-e7c8755c-8196-4c95-b625-eee3f247b27f{fill:url(#uuid-ba116e61-1526-4c82-b35a-241cf72726d0);}.uuid-44c030bf-f49e-429a-9a24-514fa52037a4{fill:url(#uuid-208b4656-23bf-497e-a264-ea9a8cb6cd39);}.uuid-954a3d79-0164-46e1-aaf9-bbf90b418c7d{fill:#191817;}.uuid-d6256303-ea17-489c-a82d-780dd1aa3cdc{fill:url(#uuid-9db671b1-274b-4dad-9bca-1ea67013dceb);}.uuid-8c62e2e2-198b-419e-bad3-6a35ace1e3b0{fill:url(#uuid-1738763f-b392-4961-baa3-bcbc47401337);}.uuid-7a5f84db-9170-4433-b404-1a2ce741acd4{fill:url(#uuid-21e6ff8b-cc43-42be-8658-c2db3b038c53);}.uuid-f8176e57-02b7-4f8d-95c1-ea6fb2927696{fill:url(#uuid-a878e15a-5ac2-4edf-900b-00670ccc18fe);}.uuid-a3d58af6-8dd3-438c-8a50-4be31d7f6eac{fill:url(#uuid-7b83a38c-2b66-4451-a066-17511155c0d0);}.uuid-7b75ff23-4f53-4e0c-82bf-007f63c86857{fill:url(#uuid-4cf6097b-6d45-45f1-bf28-7ac0920afbb1);}</style><linearGradient id="uuid-7b83a38c-2b66-4451-a066-17511155c0d0" x1="57.6" y1="119.4" x2="57.6" y2="10" gradientUnits="userSpaceOnUse"><stop offset="0" stop-color="#ba9555"></stop><stop offset=".1" stop-color="#965824"></stop><stop offset=".4" stop-color="#fcf6ac"></stop><stop offset=".7" stop-color="#d3ac53"></stop><stop offset=".8" stop-color="#bd882c"></stop><stop offset="1" stop-color="#a25d25"></stop></linearGradient><linearGradient id="uuid-bce0c5e3-bd97-490f-af01-d38e17c111c3" x1="57.7" y1="109.8" x2="57.7" y2="6.8" xlink:href="#uuid-7b83a38c-2b66-4451-a066-17511155c0d0"></linearGradient><linearGradient id="uuid-21e6ff8b-cc43-42be-8658-c2db3b038c53" x1="57.7" y1="143.6" x2="57.7" y2="-30.1" xlink:href="#uuid-7b83a38c-2b66-4451-a066-17511155c0d0"></linearGradient><linearGradient id="uuid-f0270053-dfce-450f-a166-06e4cf89542c" x1="99.4" y1="58.3" x2="16" y2="58.3" gradientUnits="userSpaceOnUse"><stop offset="0" stop-color="#bb882c"></stop><stop offset="0" stop-color="#945122"></stop><stop offset=".1" stop-color="#7b3e1a"></stop><stop offset=".3" stop-color="#441c0c"></stop><stop offset=".5" stop-color="#c6832a"></stop><stop offset=".7" stop-color="#e5b93f"></stop><stop offset=".8" stop-color="#fcfbe8"></stop><stop offset=".9" stop-color="#efdc7d"></stop><stop offset="1" stop-color="#8e5723"></stop></linearGradient><radialGradient id="uuid-208b4656-23bf-497e-a264-ea9a8cb6cd39" cx="68.7" cy="57.8" fx="68.7" fy="57.8" r="49.6" gradientUnits="userSpaceOnUse"><stop offset="0" stop-color="#1b1b1b"></stop><stop offset="1" stop-color="#000002"></stop></radialGradient><linearGradient id="uuid-4cf6097b-6d45-45f1-bf28-7ac0920afbb1" x1="11.5" y1="31" x2="122.3" y2="123" xlink:href="#uuid-7b83a38c-2b66-4451-a066-17511155c0d0"></linearGradient><linearGradient id="uuid-a878e15a-5ac2-4edf-900b-00670ccc18fe" x1="24" y1="16" x2="134.8" y2="107.9" xlink:href="#uuid-7b83a38c-2b66-4451-a066-17511155c0d0"></linearGradient><linearGradient id="uuid-1738763f-b392-4961-baa3-bcbc47401337" x1="25.2" y1="14.6" x2="136" y2="106.5" xlink:href="#uuid-7b83a38c-2b66-4451-a066-17511155c0d0"></linearGradient><linearGradient id="uuid-511b9d09-9d62-4ea5-8b97-0dd98e58d175" x1="19.6" y1="21.3" x2="130.3" y2="113.3" xlink:href="#uuid-7b83a38c-2b66-4451-a066-17511155c0d0"></linearGradient><linearGradient id="uuid-4adff672-5ad9-489d-a0a8-39b861ff0934" x1="-70.4" y1="44.6" x2="572.9" y2="45.2" gradientUnits="userSpaceOnUse"><stop offset="0" stop-color="#ba9555"></stop><stop offset=".1" stop-color="#965824"></stop><stop offset=".1" stop-color="#9b5f27"></stop><stop offset=".3" stop-color="#b3803a"></stop><stop offset=".4" stop-color="#c49848"></stop><stop offset=".6" stop-color="#cfa650"></stop><stop offset=".7" stop-color="#d3ac53"></stop><stop offset=".8" stop-color="#bd882c"></stop><stop offset="1" stop-color="#a25d25"></stop></linearGradient><linearGradient id="uuid-e647a423-6ee9-425a-8c29-b3ee5a6b0ff5" x1="-70.4" y1="44.4" x2="572.9" y2="45" gradientUnits="userSpaceOnUse"><stop offset="0" stop-color="#ba9555"></stop><stop offset=".1" stop-color="#965824"></stop><stop offset=".7" stop-color="#d3ac53"></stop><stop offset=".8" stop-color="#bd882c"></stop><stop offset="1" stop-color="#a25d25"></stop></linearGradient><linearGradient id="uuid-745ea4a5-9725-44f8-a222-03d035838df4" x1="-70.4" y1="44.4" x2="572.9" y2="45" xlink:href="#uuid-e647a423-6ee9-425a-8c29-b3ee5a6b0ff5"></linearGradient><linearGradient id="uuid-ba116e61-1526-4c82-b35a-241cf72726d0" x1="-70.4" y1="44.7" x2="572.9" y2="45.4" xlink:href="#uuid-e647a423-6ee9-425a-8c29-b3ee5a6b0ff5"></linearGradient><linearGradient id="uuid-9db671b1-274b-4dad-9bca-1ea67013dceb" x1="-70.4" y1="44.4" x2="572.9" y2="45" xlink:href="#uuid-e647a423-6ee9-425a-8c29-b3ee5a6b0ff5"></linearGradient><linearGradient id="uuid-eb515a42-0743-410a-b971-bd5e0f1ea822" x1="-70.4" y1="44.7" x2="572.9" y2="45.3" xlink:href="#uuid-e647a423-6ee9-425a-8c29-b3ee5a6b0ff5"></linearGradient><linearGradient id="uuid-bd3178bc-1ded-4f5c-9d39-ea53086e3c5d" x1="-70.4" y1="44.6" x2="572.9" y2="45.2" xlink:href="#uuid-e647a423-6ee9-425a-8c29-b3ee5a6b0ff5"></linearGradient></defs><g id="uuid-4bec934b-a63c-4367-8205-f70c4cd89b56"><g><g><path class="uuid-a3d58af6-8dd3-438c-8a50-4be31d7f6eac" d="M65.7,114.9c-.4,.2-.8,.3-1.2,.3,.4,0,.8,0,1.2,0,1.2,0,4.7,3.4,4.9,4.1-.7-.4-.9-1.1-2.2-1.1-.8,0-1.9,0-2.8,0-2.4-.1-1.8-2.2-3.6-2.4v-.2s.8,0,.8,0c.3,0,.8-.3,1.6-.4-.8,0-1.4,0-1.6,0l-.8,.2v-.2c1.6-.5,.6-2.5,2.9-3.1,.8-.2,1.9-.5,2.7-.7,1.2-.3,1.3-1,1.8-1.6,0,.7-2.6,4.8-3.8,5.1h0Zm-8.1-.4h0c.7,0,1.3,.6,1.3,1.3s-.6,1.3-1.3,1.3-1.3-.6-1.3-1.3,.6-1.3,1.3-1.3h0ZM76,15.3h0c1.4,.5,2.5,.1,2.9,.2l.8,.2v-.2c-1.7-.5-.7-2.4-3.1-3-.8-.2-1.9-.4-2.7-.6-1.2-.3-1.3-.9-1.9-1.5,0,.7,2.9,4.7,4,4.9h0Zm-36.7,0h0c-1.4,.5-2.5,.1-2.9,.2l-.8,.2v-.2c1.7-.5,.7-2.4,3.1-3,.8-.2,1.9-.4,2.7-.6,1.2-.3,1.3-.9,1.9-1.5,0,.7-2.9,4.7-4,5h0Zm3.7,98.6h0c.5,0,.9,0,1.2,.1-.4,0-.7-.2-1.2-.5-1.1-.5-3.2-4.9-3.1-5.6,.5,.7,.5,1.3,1.6,1.8,.8,.3,1.8,.7,2.6,1.1,2.2,1,1,2.7,2.5,3.5v.2s-.8-.4-.8-.4c-.2,0-.8,0-1.6-.2,.8,.2,1.3,.5,1.5,.6h.9c0,0,0,.3,0,.3-1.7,0-1.4,2.1-3.8,1.9-.8,0-1.9-.2-2.8-.3-1.2,0-1.5,.5-2.3,.9,.2-.7,4.1-3.6,5.3-3.5h0Zm-6.2-2.2h0c-1.2-.2-5.4,2.2-5.7,2.8,.8-.2,1.2-.8,2.4-.6,.8,.2,1.9,.4,2.7,.6,2.4,.5,2.3-1.7,4.1-1.4v-.2c0,0-.8-.2-.8-.2-.2,0-.7-.5-1.4-.7,.7,.3,1.3,.3,1.5,.4l.7,.4v-.2c-1.4-.9,0-2.5-2-3.8-.7-.4-1.7-.9-2.4-1.4-1.1-.6-1-1.3-1.4-2-.2,.7,1.4,5.3,2.4,5.9,.4,.3,.7,.5,1.1,.6-.3-.1-.7-.2-1.2-.3h0Zm-5.9-3h0c.5,.1,.8,.3,1.2,.4-1.9-1-3.2-5.7-2.6-6.9,.3,.8,.1,1.4,1.1,2.2,.7,.5,1.6,1.1,2.2,1.7,1.9,1.5,.2,2.9,1.6,4v.2c0,0-.8-.5-.8-.5-.2-.1-.8-.2-1.5-.6,.7,.4,1.1,.8,1.3,.9l.8,.3v.2c-1.8-.5-2,1.7-4.3,.9-.8-.3-1.8-.7-2.6-.9-1.2-.4-1.6,.1-2.4,.3,.4-.6,4.9-2.4,6-2.1h0Zm-5.5-3.7h0c-1.1-.5-5.8,.7-6.3,1.3,.8,0,1.3-.5,2.4,0,.8,.4,1.7,.9,2.5,1.3,2.2,1,2.7-1.1,4.3-.4v-.2c.1,0-.6-.4-.6-.4-.2-.1-.6-.6-1.2-1.1,.6,.5,1.2,.6,1.4,.8l.6,.6v-.2c-1.1-1.3,.8-2.4-1-4.2-.6-.6-1.4-1.3-2-1.9-.9-.9-.6-1.5-.8-2.3-.4,.6,0,5.5,.9,6.3,.3,.4,.6,.6,.9,.8-.3-.2-.7-.4-1.1-.6h0Zm-5-4.4h0c.4,.2,.7,.5,1,.7-.3-.2-.5-.6-.8-1-.7-1-.5-5.8,0-6.4,.1,.8-.2,1.4,.6,2.4,.5,.7,1.2,1.5,1.7,2.2,1.5,1.9-.5,2.9,.5,4.3v.2c-.1,0-.7-.7-.7-.7-.2-.2-.7-.4-1.3-1,.6,.5,.9,1.1,1.1,1.2l.7,.5h-.2c-1.5-.7-2.3,1.3-4.3,0-.7-.5-1.6-1.1-2.3-1.6-1-.7-1.6-.3-2.4-.3,.5-.5,5.3-1.1,6.4-.5h0Zm-4.4-5h0c.4,.3,.7,.6,.9,.8-.2-.3-.5-.6-.7-1-.6-1.1,.3-5.8,.8-6.3,0,.8-.4,1.4,.2,2.4,.4,.7,1,1.6,1.5,2.4,1.2,2.1-.8,2.8,0,4.3l-.2,.2-.4-.8c-.2-.2-.7-.5-1.2-1.1,.5,.6,.7,1.2,.9,1.4l.7,.6h-.2c-1.4-1-2.4,1-4.2-.6-.6-.5-1.5-1.3-2.1-1.8-1-.8-1.5-.5-2.4-.6,.6-.4,5.4-.5,6.4,.3h0Zm-3.7-5.5h0c.3,.3,.6,.6,.8,.9,.4,.7,.9,1,1.1,1.3l.3,.8h.2c-.6-1.8,1.5-2.2,.5-4.4-.3-.8-.8-1.8-1.2-2.5-.5-1.1,0-1.6,0-2.4-.6,.4-2,5.1-1.5,6.2,.1,.4,.3,.8,.5,1.1,.4,.7,.6,1.3,.7,1.5l.6,.6h-.2c-1.2-1.1-2.5,.6-4.1-1.1-.6-.6-1.3-1.5-1.8-2.1-.8-.9-1.5-.7-2.3-.9,.6-.3,5.5,.2,6.3,1.1h0Zm-3-5.9h0c1,1.1,1,2.3,1.2,2.6l.5,.7h-.2c-1-1.3-2.5,.3-3.9-1.7-.5-.7-1.1-1.6-1.6-2.3-.7-1-1.4-.8-2.1-1.2,.7-.3,5.4,.9,6.1,1.9h0Zm.3-.1h0c-.3-1.2,1.7-5.6,2.3-6-.2,.8-.7,1.2-.4,2.4,.2,.8,.6,1.9,.8,2.7,.7,2.3-1.5,2.5-1.1,4.2h-.2c0,.1-.2-.7-.2-.7-.2-.3-1-1.1-1.3-2.6h0Zm-2.5-6.1h0c-.6-1.1-5.1-2.8-5.8-2.6,.7,.5,1.4,.4,1.9,1.5,.4,.7,.9,1.7,1.3,2.5,1.2,2.1,2.8,.7,3.7,2.2h.2s-.4-.8-.4-.8c0-.2,0-.8-.3-1.6,.3,.8,.6,1.2,.7,1.5v.9c.1,0,.3,0,.3,0-.2-1.7,2-1.6,1.6-4-.1-.8-.4-1.9-.5-2.7-.2-1.2,.4-1.6,.7-2.3-.7,.3-3.2,4.4-3,5.6,0,.5,.1,.9,.2,1.2-.1-.3-.3-.7-.5-1.1h0Zm-1.4-6.5h0c.2,.4,.3,.8,.4,1.2,0-.4-.1-.8,0-1.2,0-1.2,3-5,3.7-5.2-.4,.7-1,1-1,2.2,0,.8,.1,1.9,.1,2.8,0,2.4-2.1,2-2.1,3.8h-.2c0,0,0-.8,0-.8,0-.2-.4-.8-.5-1.6,.2,.8,0,1.4,.1,1.6l.3,.8h-.2c-.7-1.6-2.5-.4-3.4-2.6-.3-.8-.6-1.8-.9-2.6-.4-1.2-1.1-1.2-1.7-1.7,.7,0,5,2.2,5.4,3.4h0Zm-.6-6.6h0c-.3-1.2-4.3-4-5-4,.6,.6,1.2,.7,1.5,1.9,.2,.8,.4,1.9,.6,2.7,.6,2.4,2.5,1.4,3,3.1h.2s-.2-.8-.2-.8c0-.3,.1-.8,0-1.6,0-.4,0-.8,0-1.2,.1-1.2,3.6-4.6,4.4-4.7-.5,.7-1.1,.9-1.2,2.1,0,.8-.1,1.9-.2,2.8-.2,2.4-2.3,1.7-2.5,3.5h-.2s0-.8,0-.8c0-.3-.3-.8-.3-1.6,0-.4,0-.8-.3-1.2h0Zm.2-6.6h0c-.2-1.2-3.7-4.5-4.4-4.6,.5,.7,1.1,.9,1.3,2.1,0,.8,.2,1.9,.3,2.8,.3,2.4,2.3,1.7,2.6,3.4h.2s-.1-.8-.1-.8c0-.3,.2-.8,.3-1.6,0-.4,0-.8,.2-1.2,.3-1.2,4.2-4.1,4.9-4.1-.6,.6-1.2,.7-1.5,1.9-.2,.8-.4,1.9-.6,2.7-.5,2.4-2.5,1.4-3,3.1h-.2s.2-.8,.2-.8c0-.3-.2-.8-.1-1.6,0-.4,0-.8,0-1.2h0Zm1.1-6.6h0c0-1.2-3.1-4.9-3.8-5.1,.4,.7,1,1,1,2.2,0,.8,0,1.9,0,2.8,0,2.4,2.1,2,2.1,3.7h.2c0,0,0-.8,0-.8,0-.2,.3-.8,.5-1.6,0-.4,.2-.8,.4-1.2,.4-1.1,4.7-3.5,5.4-3.5-.6,.6-1.3,.6-1.7,1.7-.3,.8-.6,1.9-.9,2.6-.8,2.3-2.7,1.1-3.3,2.7h-.2s.3-.8,.3-.8c0-.2,0-.8,0-1.6,0-.4,0-.8,0-1.2h0Zm1.9-6.4h0c0,.5-.1,.9-.2,1.2-.2,.8-.2,1.4-.3,1.6l-.4,.8h.2c.8-1.5,2.5,0,3.6-2.2,.4-.7,.8-1.8,1.2-2.5,.6-1.1,1.2-1,1.9-1.5-.7-.2-5.2,1.7-5.8,2.7-.3,.4-.4,.8-.5,1.1-.2,.8-.6,1.2-.7,1.5v.9c-.1,0-.3,0-.3,0,.2-1.7-2-1.6-1.7-4,.1-.8,.3-1.9,.4-2.8,.2-1.2-.4-1.6-.7-2.3,.7,.3,3.3,4.4,3.1,5.6h0Zm2.6-6.1h0c0,.5-.2,.9-.4,1.2-.3,.7-.4,1.3-.5,1.6l-.5,.7h.2c1-1.3,2.5,.3,3.9-1.7,.5-.7,1.1-1.6,1.5-2.3,.7-1,1.4-.9,2.1-1.3-.7-.2-5.4,1-6.1,2-.3,.4-.5,.7-.7,1-.3,.7-.8,1.2-.9,1.4l-.2,.8h-.2c.4-1.8-1.8-1.9-1.2-4.3,.2-.8,.6-1.9,.8-2.7,.3-1.2-.2-1.6-.4-2.4,.6,.3,2.7,4.7,2.4,5.9h0Zm3.4-5.7h0c.5-1.1-1.1-5.8-1.7-6.2,0,.8,.6,1.3,0,2.4-.3,.8-.8,1.8-1.1,2.6-.9,2.2,1.2,2.6,.6,4.3h.2c0,.1,.3-.7,.3-.7,.1-.2,.6-.6,1-1.3,.2-.3,.4-.6,.8-1,.8-.9,5.6-1.5,6.3-1.2-.8,.3-1.4,0-2.2,1-.6,.6-1.3,1.5-1.8,2.1-1.6,1.8-2.9,0-4.1,1.3h-.2c0,0,.6-.7,.6-.7,.1-.2,.3-.8,.7-1.5,.2-.3,.4-.7,.5-1.1h0Zm4.1-5.2h0c.6-1.1-.4-5.8-.9-6.3,0,.8,.4,1.4-.2,2.4-.4,.7-1,1.7-1.4,2.4-1.2,2.1,.9,2.8,0,4.3l.2,.2,.4-.8c.2-.2,.7-.5,1.2-1.1-.5,.6-.7,1.2-.9,1.4l-.7,.6h.2c1.3-1,2.4,.9,4.2-.7,.6-.6,1.4-1.3,2.1-1.9,.9-.8,1.5-.5,2.3-.7-.6-.4-5.5-.4-6.4,.4-.4,.3-.7,.6-.9,.8,.2-.3,.5-.6,.6-1.1h0Zm4.7-4.7h0c.7-1,.4-5.8,0-6.4-.1,.8,.2,1.4-.5,2.4-.5,.7-1.2,1.5-1.7,2.2-1.4,1.9,.5,2.9-.5,4.3v.2c.1,0,.7-.7,.7-.7,.2-.2,.7-.4,1.3-1-.6,.5-.9,1.1-1,1.3l-.7,.5h.2c1.5-.8,2.3,1.2,4.3,0,.7-.5,1.6-1.1,2.3-1.6,1-.7,1.6-.3,2.4-.4-.5-.5-5.4-1.1-6.4-.4-.4,.2-.7,.5-1,.7,.3-.3,.5-.6,.8-1h0Zm5.3-4h0c-.3,.4-.6,.6-.9,.9-.6,.5-1,1-1.2,1.1l-.8,.4v.2c1.7-.7,2.3,1.4,4.4,.3,.8-.4,1.7-.9,2.5-1.3,1.1-.6,1.6-.1,2.4,0-.5-.5-5.2-1.7-6.3-1.2-.4,.2-.8,.4-1.1,.6-.6,.5-1.2,.7-1.4,.8l-.6,.6v-.2c1.1-1.3-.8-2.4,.9-4.2,.6-.6,1.4-1.4,2-2,.9-.9,.6-1.5,.8-2.3,.4,.6,0,5.5-.7,6.3h0Zm5.7-3.4h0c.9-.8,1.8-5.6,1.5-6.2-.3,.8-.1,1.4-1.1,2.2-.6,.5-1.6,1.2-2.2,1.7-1.9,1.5-.2,2.9-1.5,4v.2c0,0,.8-.6,.8-.6,.2-.1,.8-.2,1.5-.6-.7,.4-1.1,.8-1.3,1l-.8,.3v.2c1.8-.5,2.1,1.6,4.3,.8,.8-.3,1.8-.7,2.6-1,1.2-.4,1.6,0,2.4,.2-.4-.6-4.9-2.4-6.1-2-.5,.1-.8,.3-1.2,.5,.3-.2,.7-.4,1-.7h0Zm15.6,99.1h0c-1.2,0-4.7,3.4-4.9,4.1,.7-.4,.9-1.1,2.2-1.1,.8,0,1.9,0,2.8,0,2.4-.1,1.8-2.2,3.6-2.4v-.2s-.8,0-.8,0c-.3,0-.8-.3-1.6-.4,.8,0,1.4,0,1.6,0l.8,.2v-.2c-1.6-.5-.6-2.5-2.9-3.1-.8-.2-1.9-.5-2.7-.7-1.2-.3-1.3-1-1.8-1.6,0,.7,2.6,4.8,3.8,5.1,.4,.2,.8,.3,1.2,.3-.4,0-.8,0-1.2,0h0Zm22.7-1.4h0c-.5,0-.9,0-1.2,.1,.4,0,.7-.2,1.1-.4,1.1-.5,3.2-4.9,3.1-5.6-.5,.7-.5,1.3-1.6,1.8-.8,.3-1.8,.7-2.6,1.1-2.2,1-1,2.7-2.5,3.5v.2s.8-.4,.8-.4c.2,0,.8,0,1.6-.2-.8,.2-1.3,.5-1.5,.6h-.9c0,0,0,.3,0,.3,1.7,0,1.4,2.1,3.8,1.9,.8,0,1.9-.2,2.8-.3,1.2,0,1.5,.5,2.3,.9-.2-.7-4.1-3.6-5.3-3.5h0Zm6.2-2.2h0c1.2-.2,5.4,2.2,5.7,2.8-.8-.2-1.2-.8-2.4-.6-.8,.2-1.9,.4-2.7,.6-2.4,.5-2.3-1.7-4.1-1.4v-.2c0,0,.8-.2,.8-.2,.2,0,.7-.5,1.4-.7-.7,.3-1.3,.3-1.5,.4l-.7,.4v-.2c1.4-.9,0-2.5,2-3.8,.7-.4,1.7-.9,2.4-1.4,1.1-.6,1-1.3,1.4-2,.2,.7-1.4,5.3-2.4,5.9-.4,.3-.7,.5-1.1,.6,.3-.1,.7-.2,1.2-.3h0Zm5.9-3h0c-.5,.1-.8,.3-1.2,.4,.3-.2,.7-.4,1-.7,1-.8,1.9-5.5,1.6-6.2-.3,.8-.1,1.4-1.1,2.2-.7,.5-1.6,1.1-2.2,1.7-1.9,1.5-.2,2.9-1.6,4v.2c0,0,.8-.5,.8-.5,.2-.1,.8-.2,1.5-.6-.7,.4-1.1,.8-1.3,.9l-.8,.3v.2c1.8-.5,2,1.7,4.3,.9,.8-.3,1.8-.7,2.6-.9,1.2-.4,1.6,.1,2.4,.3-.4-.6-4.9-2.4-6.1-2.1h0Zm5.5-3.7h0c1.1-.5,5.8,.7,6.3,1.3-.8,0-1.3-.5-2.4,0-.7,.4-1.7,.9-2.5,1.3-2.2,1-2.7-1.1-4.3-.4v-.2c-.1,0,.6-.4,.6-.4,.2-.1,.6-.6,1.2-1.1-.7,.5-1.2,.6-1.4,.8l-.6,.6v-.2c1.1-1.3-.8-2.4,1-4.2,.6-.6,1.4-1.3,2-1.9,.9-.9,.6-1.5,.8-2.3,.4,.6,0,5.5-.9,6.3-.3,.4-.6,.6-.9,.8,.3-.2,.7-.4,1.1-.6h0Zm5-4.4h0c-.4,.2-.7,.5-1,.7,.3-.2,.5-.6,.8-1,.7-1,.5-5.8,0-6.4-.1,.8,.2,1.4-.6,2.4-.5,.7-1.2,1.5-1.7,2.2-1.5,1.9,.5,2.9-.5,4.3v.2c.1,0,.7-.7,.7-.7,.2-.2,.7-.4,1.3-1-.6,.5-.9,1.1-1.1,1.2l-.7,.5h.2c1.5-.7,2.3,1.3,4.3,0,.7-.5,1.6-1.1,2.3-1.6,1-.7,1.6-.3,2.4-.3-.5-.5-5.3-1.1-6.4-.5h0Zm4.4-5h0c.9-.8,5.8-.7,6.4-.3-.8,.2-1.4-.2-2.4,.7-.6,.5-1.4,1.3-2.1,1.8-1.9,1.6-2.9-.4-4.2,.7h-.2c0-.1,.7-.7,.7-.7,.2-.2,.4-.8,.9-1.4,.2-.3,.5-.6,.7-1,.6-1.1-.3-5.8-.8-6.3,0,.8,.4,1.4-.2,2.4-.4,.7-1,1.6-1.5,2.4-1.2,2.1,.8,2.8,0,4.3l.2,.2,.4-.8c.2-.2,.7-.5,1.2-1.1,.2-.3,.5-.6,.9-.8h0Zm3.7-5.5h0c-.3,.3-.6,.6-.8,.9-.4,.7-.9,1-1.1,1.3l-.3,.8h-.2c.6-1.8-1.5-2.2-.5-4.4,.3-.8,.8-1.8,1.2-2.5,.5-1.1,0-1.6,0-2.4,.6,.4,2,5.1,1.5,6.2-.1,.4-.3,.8-.5,1.1-.4,.7-.6,1.3-.7,1.5l-.6,.6h.2c1.2-1.1,2.5,.6,4.1-1.1,.6-.6,1.3-1.5,1.8-2.1,.8-.9,1.5-.7,2.3-.9-.6-.3-5.5,.2-6.3,1.1h0Zm3-5.9h0c-.3,.3-.5,.7-.7,1-.3,.7-.8,1.1-.9,1.4l-.2,.8h-.2c.4-1.8-1.7-1.9-1.1-4.3,.2-.8,.6-1.9,.8-2.7,.3-1.2-.2-1.6-.4-2.4,.6,.4,2.6,4.8,2.3,6,0,.5-.2,.8-.4,1.2-.3,.7-.4,1.3-.5,1.6l-.5,.7h.2c1.1-1.3,2.5,.3,3.9-1.7,.5-.7,1.1-1.6,1.6-2.3,.7-1,1.4-.8,2.1-1.2-.7-.3-5.4,.9-6.1,1.9h0Zm2.2-6.2h0c-.3,.4-.4,.8-.5,1.1-.3,.8-.6,1.2-.7,1.5v.9c-.1,0-.3,0-.3,0,.2-1.7-2-1.6-1.6-4,.1-.8,.4-1.9,.5-2.7,.2-1.2-.4-1.6-.7-2.3,.7,.3,3.2,4.4,3,5.6,0,.5-.1,.9-.2,1.2-.3,.8-.2,1.4-.3,1.6l-.4,.8h.2c.9-1.5,2.5,0,3.7-2.2,.4-.7,.9-1.7,1.3-2.5,.6-1.1,1.2-1,1.9-1.5-.7-.2-5.2,1.6-5.8,2.7h0Zm1.4-6.5h0c-.2,.4-.3,.8-.4,1.2,0-.4,.1-.8,0-1.2,0-1.2-3-5-3.7-5.2,.4,.7,1,1,1,2.2,0,.8-.1,1.9-.1,2.8,0,2.4,2.1,2,2.1,3.8h.2c0,0,0-.8,0-.8,0-.2,.4-.8,.5-1.6-.2,.8,0,1.4-.1,1.6l-.3,.8h.2c.7-1.6,2.5-.4,3.4-2.6,.3-.8,.6-1.8,.9-2.6,.4-1.2,1.1-1.2,1.7-1.7-.7,0-5,2.2-5.4,3.4h0Zm.6-6.6h0c.3-1.2,4.3-4,5-4-.6,.6-1.2,.7-1.5,1.9-.2,.8-.4,1.9-.6,2.7-.6,2.4-2.5,1.4-3,3.1h-.2s.2-.8,.2-.8c0-.4-.3-1.4,.2-2.8h0Zm-.3,0h0c.3,1.5-.2,2.5-.2,2.8v.9c0,0-.1,0-.1,0-.2-1.7-2.3-1.1-2.5-3.5,0-.8-.1-1.9-.2-2.8-.1-1.2-.8-1.4-1.2-2.1,.7,.1,4.2,3.5,4.4,4.7h0Zm.1-6.6h0c0,.5-.1,.9,0,1.2,0-.4,0-.8-.2-1.2-.3-1.2-4.2-4.1-4.9-4.1,.6,.6,1.2,.7,1.5,1.9,.2,.8,.4,1.9,.6,2.7,.5,2.4,2.5,1.4,3,3.1h.2s-.2-.8-.2-.8c0-.3,.2-.8,.1-1.6,0,.8,.3,1.4,.3,1.6v.9c-.1,0,.1,0,.1,0,.3-1.7,2.3-1,2.6-3.4,.1-.8,.2-1.9,.3-2.8,.1-1.2,.8-1.4,1.3-2.1-.7,0-4.3,3.4-4.4,4.6h0Zm-1.1-6.6h0c0,.5,0,.9,0,1.2,.1,.8,0,1.4,0,1.6l.3,.8h-.2c-.6-1.6-2.5-.4-3.3-2.7-.3-.8-.6-1.9-.9-2.6-.4-1.2-1.1-1.2-1.7-1.7,.7,0,5,2.3,5.4,3.5,.2,.4,.3,.8,.4,1.2,.1,.8,.4,1.3,.5,1.6v.9s.2,0,.2,0c0-1.7,2.2-1.3,2.1-3.7,0-.8,0-2,0-2.8,0-1.2,.6-1.5,1-2.2-.7,.2-3.8,3.9-3.8,5.1h0Zm-1.9-6.4h0c0,.5,.1,.9,.2,1.2,.2,.8,.2,1.4,.3,1.6l.4,.8h-.2c-.8-1.5-2.5,0-3.6-2.2-.4-.7-.8-1.8-1.2-2.5-.6-1.1-1.2-1-1.9-1.5,.7-.2,5.2,1.7,5.8,2.7,.3,.4,.4,.8,.5,1.1,.2,.8,.6,1.2,.7,1.5v.9c.1,0,.3,0,.3,0-.2-1.7,2-1.6,1.7-4-.1-.8-.3-1.9-.4-2.8-.2-1.2,.4-1.6,.7-2.3-.7,.3-3.3,4.4-3.1,5.6h0Zm-2.6-6.1c0,.5,.2,.9,.4,1.2,.3,.7,.4,1.3,.5,1.6l.5,.7h-.2c-1-1.3-2.5,.3-3.9-1.7-.5-.7-1.1-1.6-1.5-2.3-.7-1-1.4-.9-2.1-1.3,.7-.2,5.4,1,6.1,2,.3,.4,.5,.7,.7,1,.3,.7,.8,1.2,.9,1.4l.2,.8h.2c-.4-1.8,1.8-1.9,1.1-4.3-.2-.8-.6-1.9-.8-2.7-.3-1.2,.2-1.6,.4-2.4-.6,.4-2.7,4.7-2.4,5.9h0Zm-3.4-5.7h0c.1,.4,.3,.8,.5,1.1,.4,.7,.6,1.3,.7,1.5l.6,.6h-.2c-1.2-1.2-2.5,.6-4.1-1.2-.6-.6-1.3-1.5-1.8-2.1-.8-.9-1.4-.7-2.2-1,.6-.3,5.5,.3,6.3,1.2,.3,.3,.6,.6,.8,1,.4,.7,.9,1.1,1,1.3l.3,.8h.2c-.6-1.8,1.5-2.1,.6-4.4-.3-.8-.8-1.8-1.1-2.6-.5-1.2,0-1.6,0-2.4-.6,.4-2.1,5-1.7,6.2h0Zm-4.1-5.2h0c-.6-1.1,.4-5.8,.9-6.3,0,.8-.4,1.3,.2,2.4,.4,.7,1,1.7,1.4,2.4,1.2,2.1-.9,2.8,0,4.3l-.2,.2-.4-.8c-.2-.2-.7-.5-1.2-1.1,.5,.6,.7,1.2,.9,1.4l.7,.6h-.2c-1.3-1-2.4,.9-4.2-.7-.6-.5-1.4-1.3-2.1-1.9-.9-.8-1.5-.5-2.3-.7,.6-.4,5.5-.4,6.4,.4,.4,.3,.7,.6,.9,.8-.2-.3-.5-.6-.6-1.1h0Zm-4.7-4.7h0c-.7-1-.4-5.8,0-6.4,.1,.8-.2,1.4,.5,2.4,.5,.7,1.2,1.5,1.7,2.2,1.4,1.9-.5,2.9,.5,4.3v.2c-.1,0-.7-.7-.7-.7-.2-.2-.7-.4-1.3-1,.6,.6,.9,1.1,1,1.3l.7,.5h-.2c-1.5-.8-2.3,1.2-4.3,0-.7-.5-1.6-1.1-2.3-1.6-1-.7-1.6-.3-2.4-.4,.5-.5,5.4-1.1,6.4-.4,.4,.2,.7,.5,1,.7-.3-.2-.5-.6-.8-1h0Zm-5.3-4h0c-.8-.9-1.1-5.7-.7-6.3,.2,.8,0,1.4,.8,2.3,.6,.6,1.4,1.4,2,2,1.7,1.7-.2,2.9,1,4.2v.2c-.1,0-.7-.6-.7-.6-.2-.2-.8-.3-1.4-.8-.3-.2-.7-.4-1.1-.6-1.1-.5-5.8,.6-6.3,1.2,.8,0,1.3-.5,2.4,0,.7,.4,1.7,.9,2.5,1.3,2.2,1.1,2.7-1,4.3-.3v-.2c.1,0-.6-.4-.6-.4-.2-.1-.5-.6-1.2-1.1-.3-.2-.6-.5-.9-.9h0Zm-5.7-3.4h0c-.9-.8-1.8-5.6-1.5-6.2,.3,.8,.1,1.4,1.1,2.2,.6,.5,1.6,1.2,2.2,1.7,1.9,1.5,.2,2.9,1.5,4v.2c0,0-.8-.5-.8-.5-.2-.1-.8-.2-1.5-.6-.3-.2-.7-.3-1.2-.5-1.2-.4-5.7,1.4-6.1,2,.8-.1,1.3-.6,2.4-.2,.8,.3,1.8,.7,2.6,1,2.3,.8,2.6-1.4,4.2-.8v-.2c.1,0-.7-.3-.7-.3-.2-.1-.6-.6-1.3-1-.3-.2-.7-.4-1-.7Z"></path><path class="uuid-406eea17-1141-4045-ab7f-7fd462f5a9f5" d="M57.5,8.2c-1.1,.6-2.3,1.2-3.5,1.7-1.4,.6-2.8,1.2-4.1,1.8-1.6,.6-3.2,1.2-4.8,1.7-1.6,.5-3.3,1-5,1.5-1.7,.4-3.4,.8-5.1,1.2-1.7,.4-3.5,.7-5.3,1-1.6,.2-3.1,.5-4.7,.6-1.3,.2-2.6,.3-3.9,.4v54.8c0,1.2,.2,2.5,.6,3.7,.4,1.3,1,2.7,1.7,4,.8,1.5,1.8,3,3,4.4,1.2,1.6,2.7,3.1,4.2,4.7,1.7,1.7,3.6,3.4,5.6,5,2.2,1.8,4.5,3.4,6.8,5,2.5,1.7,5.1,3.3,7.5,4.8,2.7,1.6,5.3,3,7.5,4.1,2.2-1.1,4.8-2.5,7.5-4.1,2.4-1.4,5-3,7.5-4.8,2.3-1.6,4.6-3.3,6.8-5,2-1.6,3.9-3.3,5.6-5,1.6-1.5,3-3.1,4.2-4.7,1.2-1.5,2.2-2.9,3-4.4,.7-1.3,1.3-2.7,1.7-4,.4-1.2,.6-2.5,.6-3.7V18.2c-1.4,0-2.7-.1-3.9-.2-1.6-.1-3.1-.3-4.7-.5-1.8-.2-3.6-.5-5.4-.8-1.8-.3-3.5-.7-5.2-1.1-1.8-.4-3.5-.9-5.1-1.5-1.7-.6-3.3-1.2-4.9-1.9-1.4-.6-2.8-1.3-4.2-2-1.2-.6-2.4-1.3-3.5-2.1h0Zm-4.3,0h0c1.3-.6,2.6-1.2,3.9-1.9l.5-.2,.4,.3c1.2,.8,2.5,1.6,3.8,2.3,1.3,.7,2.7,1.3,4.1,1.9,1.5,.7,3.1,1.3,4.8,1.8,1.6,.5,3.3,1,5,1.5,1.7,.4,3.4,.8,5.1,1.1,1.7,.3,3.5,.6,5.3,.8,1.5,.2,3,.3,4.6,.5,1.6,.1,3.2,.2,4.8,.3h.9v56.4c0,1.4-.2,2.8-.6,4.2-.4,1.5-1,2.9-1.8,4.4-.9,1.6-1.9,3.1-3.1,4.7-1.3,1.6-2.8,3.3-4.4,4.8-1.8,1.8-3.7,3.5-5.8,5.1-2.2,1.8-4.6,3.5-6.9,5.1-2.6,1.8-5.1,3.4-7.6,4.8-2.9,1.7-5.7,3.2-8,4.4l-.4,.2-.4-.2c-2.3-1.2-5.1-2.7-8-4.4-2.4-1.4-5-3.1-7.6-4.8-2.3-1.6-4.7-3.3-6.9-5.1-2-1.6-4-3.3-5.8-5.1-1.6-1.6-3.1-3.2-4.4-4.8-1.2-1.5-2.3-3.1-3.1-4.7-.8-1.5-1.4-2.9-1.8-4.4-.4-1.4-.6-2.8-.6-4.2V16.4h.8c1.6-.2,3.2-.3,4.7-.5,1.6-.2,3.1-.4,4.6-.6,1.8-.3,3.5-.6,5.2-1,1.7-.4,3.4-.8,5-1.2,1.7-.4,3.3-.9,4.9-1.5,1.6-.5,3.2-1.1,4.7-1.7,1.4-.5,2.7-1.1,4-1.7h0Zm-15.2-.7h0c1.6-.4,3.2-.9,4.8-1.4,1.6-.5,3.1-1.1,4.5-1.6,1.4-.6,2.9-1.2,4.3-1.9,1.4-.7,2.8-1.4,4.1-2.1,.3-.2,.6-.3,1-.4,.3,0,.7-.1,1.1-.1,.4,0,.7,0,1.1,.2,.3,.1,.7,.3,1,.5,1.3,.9,2.6,1.7,3.9,2.4,1.3,.7,2.7,1.4,4.2,2.1,1.4,.6,2.9,1.2,4.5,1.7,1.5,.5,3.1,1,4.7,1.4,1.6,.4,3.3,.8,5,1.1,1.7,.3,3.4,.6,5.2,.8,1.8,.2,3.6,.4,5.4,.5,1.8,.1,3.7,.2,5.5,.2h0s0,0,0,0h0c.5,0,1,0,1.5,.3,.5,.2,.9,.5,1.2,.8,.3,.3,.6,.8,.8,1.2h0c.2,.5,.3,.9,.3,1.5v58.3c0,1.9-.3,3.7-.8,5.5-.5,1.9-1.3,3.8-2.3,5.6-1,1.9-2.2,3.7-3.6,5.5-1.5,1.9-3.2,3.8-5,5.6-1.9,1.9-4,3.7-6.2,5.5-2.4,1.9-4.9,3.8-7.5,5.5-2.9,2-5.9,3.8-8.6,5.4-3.4,2-6.5,3.6-9,4.9h-.2c0,0-.8,.3-.8,.3h0s0,0,0,0h0s-.8,.2-1.9-.3c-2.5-1.3-5.7-2.9-9-4.9-2.7-1.6-5.6-3.4-8.6-5.4-2.5-1.7-5.1-3.6-7.5-5.5-2.2-1.7-4.3-3.6-6.2-5.5-1.8-1.8-3.5-3.6-5-5.6-1.4-1.8-2.6-3.6-3.6-5.5-1-1.8-1.8-3.7-2.3-5.6-.5-1.8-.8-3.7-.8-5.5v-.9h0V14.6c0-.5,0-1,.3-1.4h0c.2-.4,.4-.9,.8-1.2,.3-.4,.7-.6,1.2-.8,.2,0,.3-.1,.5-.2h0c0-.1,.9-.1,.9-.1,1.9-.1,3.7-.3,5.6-.4,1.8-.2,3.6-.4,5.4-.7,1.8-.3,3.5-.6,5.2-.9,1.7-.3,3.3-.7,5-1.2h0Zm5.3,.3h0c1.6-.5,3.1-1.1,4.6-1.7,1.5-.6,3-1.2,4.4-1.9,1.4-.7,2.8-1.4,4.2-2.2h0c.2-.1,.3-.2,.5-.2,.2,0,.4,0,.6,0,.2,0,.4,0,.6,.1,.2,0,.3,.1,.5,.3,1.3,.9,2.7,1.8,4.1,2.5,1.4,.8,2.8,1.5,4.3,2.1,1.5,.6,3,1.2,4.6,1.8,1.6,.5,3.2,1,4.8,1.4,1.7,.4,3.4,.8,5.1,1.1,1.7,.3,3.5,.6,5.3,.8,1.8,.2,3.6,.4,5.5,.5,1.8,.1,3.7,.2,5.6,.2h0s0,0,0,0h0s0,0,0,0h0c.3,0,.5,0,.7,.1,.2,0,.5,.2,.6,.4,.2,.2,.3,.4,.4,.6h0c0,.2,.1,.5,.1,.8v58.3c0,1.7-.2,3.4-.7,5-.5,1.8-1.2,3.5-2.1,5.2-1,1.8-2.1,3.5-3.5,5.3-1.4,1.8-3.1,3.6-4.9,5.4-1.9,1.8-3.9,3.6-6.1,5.4-2.4,1.9-4.9,3.7-7.4,5.4-2.9,1.9-5.8,3.7-8.5,5.3-3.3,1.9-6.3,3.5-8.8,4.8l-.7,.2h0s0,0,0,0h0s-.2,0-.6-.2c-2.5-1.2-5.6-2.9-8.9-4.8-2.7-1.6-5.6-3.4-8.5-5.3-2.5-1.7-5-3.5-7.3-5.4-2.1-1.7-4.2-3.5-6.1-5.3-1.8-1.7-3.4-3.5-4.8-5.4-1.3-1.7-2.5-3.5-3.5-5.2-.9-1.7-1.7-3.5-2.1-5.2-.4-1.5-.7-3.1-.7-4.7V14.6c0-.3,0-.5,.1-.7h0c0-.2,.2-.5,.4-.6,.2-.2,.4-.3,.6-.4,.2-.1,.5-.2,.7-.2h.9c1.6-.2,3.2-.3,4.8-.4,1.9-.2,3.7-.4,5.5-.7,1.8-.3,3.5-.6,5.3-.9,1.7-.4,3.4-.8,5.1-1.2,1.7-.4,3.3-.9,4.9-1.4Z"></path><path class="uuid-7a5f84db-9170-4433-b404-1a2ce741acd4" d="M57.6,7.1c-2.6,1.4-5.3,2.6-8,3.7-3.1,1.2-6.4,2.3-9.8,3.2-3.3,.9-6.8,1.6-10.4,2.2-3.1,.5-6.2,.8-9.4,1.1v55.6c0,2.7,.9,5.5,2.3,8.2,1.7,3.2,4.3,6.3,7.3,9.3,3.7,3.7,8.1,7.1,12.5,10.1,5.6,3.8,11.2,7,15.5,9.2,4.3-2.2,9.9-5.3,15.5-9.2,4.4-3,8.8-6.4,12.6-10.1,3-3,5.6-6.1,7.4-9.3,1.5-2.7,2.3-5.5,2.3-8.2V17.4c-3.2-.1-6.4-.4-9.4-.7-3.6-.4-7.1-1.1-10.5-1.9-3.5-.9-6.8-1.9-9.9-3.3-2.8-1.2-5.5-2.6-8-4.3h0Zm-19.3,1.3h0c3.3-.9,6.4-1.9,9.4-3.1,3-1.2,5.8-2.5,8.5-4,.5-.3,1-.4,1.6-.4,.6,0,1.1,.2,1.6,.5,2.6,1.8,5.3,3.3,8.2,4.6,2.9,1.3,6,2.3,9.3,3.1,3.3,.8,6.7,1.4,10.3,1.8,3.6,.4,7.3,.7,11,.7h0s0,0,0,0c.8,0,1.5,.3,2,.8,.5,.5,.8,1.2,.8,2v58.3c0,3.6-1.1,7.2-3,10.7-2,3.8-5,7.4-8.5,10.9-4,4-8.8,7.6-13.6,10.9-6.5,4.4-12.9,7.9-17.5,10.2l-.8,.2s-.5,.2-1.2-.2c-4.6-2.3-11-5.8-17.5-10.2-4.8-3.2-9.5-6.9-13.5-10.8-3.5-3.4-6.4-7.1-8.5-10.9-1.9-3.5-3-7.1-3-10.7h0V14.6c0-.8,.3-1.5,.8-2,.5-.5,1.2-.9,1.9-.9,3.8-.2,7.5-.6,11.1-1.1,3.6-.5,7-1.2,10.3-2.1Z"></path><path class="uuid-27e6bdfe-12e3-4d87-9b70-11e5005eb5e2" d="M57.7,5c-5.6,3.1-11.8,5.5-18.4,7.2-6.5,1.7-13.6,2.8-21.1,3.3v57.3c0,6.4,4.3,12.9,10.2,18.8,8.9,8.8,21.5,16.1,29.3,20,7.8-3.9,20.4-11.2,29.3-20,6-5.9,10.3-12.3,10.3-18.8V15.6c-7.6-.2-14.7-1-21.3-2.7-6.7-1.7-12.9-4.2-18.3-7.9h0Zm-18.9,5.2h0c6.7-1.8,12.8-4.2,18.4-7.3,.4-.2,.8-.2,1.2,0,5.3,3.7,11.4,6.3,18.1,8,6.7,1.7,14.1,2.5,21.8,2.6,0,0,0,0,0,0,.6,0,1.1,.5,1.1,1.1v58.3c0,7.1-4.6,14-10.9,20.3-9.3,9.1-22.7,16.8-30.6,20.7,0,0-.3,0-.4,0-7.9-3.9-21.3-11.6-30.6-20.7-6.3-6.2-10.9-13.2-10.9-20.3V14.6c0-.6,.4-1,1-1.1,7.8-.4,15-1.5,21.7-3.3Z"></path><path class="uuid-44c030bf-f49e-429a-9a24-514fa52037a4" d="M57.7,3.8c-11.4,6.3-25,9.9-40.6,10.8v58.3c0,16.9,27.6,33.5,40.6,39.9,13-6.4,40.6-23.1,40.6-39.9V14.6c-15.7-.3-29.8-3.2-40.6-10.8Z"></path><path class="uuid-954a3d79-0164-46e1-aaf9-bbf90b418c7d" d="M57.2,5.7c-5.4,2.8-11.2,5.1-17.4,6.7-6.6,1.7-13.6,2.8-21.1,3.3v57.3c0,6.4,4.3,12.9,10.2,18.8,8.5,8.4,20.4,15.5,28.3,19.5V5.7Z"></path><g><path class="uuid-7b75ff23-4f53-4e0c-82bf-007f63c86857" d="M59.3,31.6c-3-2.8-7.6-4.2-13.7-4.2s-2.5,0-4.6,0c-2.2,0-4.5,0-6.8,0s-3.4,0-5.1,0c-1.7,0-3.1-.1-4.2-.2v.8c1.7,0,3,.6,3.9,.9,.9,.3,1.5,1.3,1.8,2.2,.3,.9,.5,2.3,.5,4.1v37.6c0,1.8-.2,3.2-.5,4.1-.3,.9-.9,1.9-1.8,2.2s-2.2,.9-3.9,1v.8c1.1,0,2.5-.2,4.2-.2,.4,0,.7,0,1.1,0,.1,0,.3,0,.4,0,1.3,0,2.6,0,4,0,2.1,0,4.1,0,6.1,0s3.7,0,5,.2v-.8c-.3,0-.6,0-.8,0-1.7-.1-3.1-.3-4-.6-1.1-.3-1.9-1.6-2.2-2.6-.3-.7-.5-1.6-.5-2.8,0,0,0,0,0,0,0-.4,0-.8,0-1.3v-13.7h5.8c1.6,0,3.1,0,4.5-.3,2-.3,3.8-.7,5.3-1.3,.4-.2,.8-.3,1.2-.5,2-1,3.7-2.2,4.9-3.6,1.5-1.7,2.5-3.5,3.1-5.5,.6-2,.9-3.9,.9-5.7,0-4.4-1.5-8-4.6-10.8Zm-4.1,18.8c-.4,1.2-.9,2.3-1.7,3.3-.6,.8-1.3,1.5-2.2,2.1-1,.7-2.2,1.2-3.6,1.6-1.3,.3-2.9,.5-4.6,.5h-5.1v-22.5c0-.9,0-1.8,.1-2.5,.2-1.3,.5-2.2,.9-2.8,.7-.9,2.2-1.3,4.6-1.3s.3,0,.4,0c4.4,0,7.5,1.3,9.3,3.6,1.9,2.4,2.8,6,2.8,10.8s-.3,5-1,7.2Z"></path><g><path class="uuid-f8176e57-02b7-4f8d-95c1-ea6fb2927696" d="M60.2,71.3l-.7,2,1.3-.6-.5-1.4Zm16.2-39.7v1l.3-.8-.3-.2Z"></path><path class="uuid-8c62e2e2-198b-419e-bad3-6a35ace1e3b0" d="M60.2,71.3l-4.8-12.5c-1.9,1.2-4.2,1.9-6.4,2l8,20.6h1.2l18.2-48.7v-1l.3,.2-.3,.8v40.3c0,1.8-.1,3.2-.5,4.1-.3,.9-.9,2.2-1.8,2.5-.9,.3-2.2,.5-3.9,.6v.8c1.1-.1,2.4-.2,4.2-.2,1.7,0,3.5,0,5.5,0s3.5,0,5.3,0c1.7,0,3.2,0,4.3,.2v-.8c-1.7-.1-3-.3-3.9-.6-.9-.3-1.5-1.6-1.8-2.5-.3-.9-.5-2.3-.5-4.1V35.6c0-1.9,.1-3.2,.5-4.1,.3-.9,.9-2.2,1.8-2.5,.9-.3,2.2-.5,3.9-.6v-.8c-1.2,0-2.6,.1-4.3,.2-1.7,0-3.5,0-5.3,0h-3.5l-16.2,43.4"></path></g><path class="uuid-a0c1b7e1-9173-44a7-bd12-dfdf0bcead06" d="M52.8,52.3l-8-21.8c0,0-.1,0-.2,0-2.3,0-3.8,.4-4.6,1.3-.3,.4-.6,.9-.7,1.6,0,.2,0,.4,0,.6,0,.3,0,.5,0,.8l7.5,20.9c.3,0,.5,0,.8-.2,.8-.2,1.5-.4,2.1-.7,.3-.2,.5-.3,.8-.5,.8-.6,1.6-1.3,2.2-2.1Z"></path></g></g><g><path class="uuid-b052af65-11a1-4306-8390-478520d5bc1c" d="M164.9,38c0,2.5-.9,4.7-2.7,6.5-1.9,1.9-4.7,2.8-8.5,2.8s-3.8-.3-6.1-.9c-.1,0-.2,0-.2,.1v8c0,3.8,.4,5.6,1.1,5.6h4.7c.2,0,.3,0,.3,.3v.7c0,.2,0,.3-.2,.3h-14.2c-.1,0-.2,0-.2-.2v-.8c0-.2,0-.3,.3-.3h3.6c.3,0,.4-.2,.4-.6v-25.5c0-3.1-.2-4.6-.7-4.6h-3.6c-.2,0-.4,0-.4-.2v-.9c0-.2,.1-.3,.3-.3h6.6c.3,0,1.5,0,3.5,0,2,0,3.1,0,3.2,0,1.9,0,3.5,.1,4.7,.4,2,.4,3.8,1.3,5.3,2.8,1.8,1.7,2.6,4,2.6,6.8Zm-4.1,.3c0-2.2-.9-4.1-2.6-5.7-2-1.9-4.9-2.9-8.6-2.9s-1.6,0-1.7,0c-.1,0-.2,.2-.3,.5-.1,.9-.2,3.4-.2,7.6s0,1.3,0,3.5c0,2.2,0,3.3,0,3.4,0,.2,.1,.4,.4,.5,1.1,.4,2.8,.6,5.1,.6s4.6-.6,5.8-1.8c1.4-1.3,2.1-3.2,2.1-5.8Z"></path><path class="uuid-f7848157-3175-40ae-814e-b4d668fec8cf" d="M213.5,61.3c0,.2,0,.3-.2,.3h-8.6c-.2,0-.4,0-.7-.3-.7-.5-1.9-1.9-3.7-4.2-.9-1.2-1.9-2.4-2.8-3.6-1.1-1.5-2.5-3.8-4.4-6.9-.1-.3-.3-.4-.4-.4-.8,0-2.3,0-4.4-.3-.3,0-.4,0-.4,.2s0,1.4,0,3.1c0,1.8,0,3.6,0,5.6,0,3.6,.4,5.4,1.2,5.4h4.7c.2,0,.3,0,.3,.2v.8c0,.2,0,.2-.2,.2h-14c-.2,0-.3,0-.3,0,0,0,0-.1,0-.2v-.8c0-.1,0-.2,0-.3,0,0,.1,0,.2,0h3.4c.3,0,.4-.3,.4-.8v-23.5c0-4.5-.3-6.8-.9-6.8h-3.3c-.2,0-.3,0-.3-.2v-.9c0-.1,0-.2,.2-.2h7.9c.2,0,1.3,0,3,0,1.8,0,2.8,0,3,0,1.1,0,2.3,0,3.3,.2,2.4,.4,4.4,1.2,5.8,2.5,1.7,1.5,2.6,3.5,2.6,5.8s-.8,4.9-2.5,6.6c-1,1.1-2.7,2-5.1,2.7-.1,0-.2,.2-.2,.3,.8,1.9,2.6,4.3,5.3,7.3,1.5,1.6,2.5,2.7,3.2,3.3,1.2,1.2,2.2,2,3,2.6,1.1,.8,2.5,1.2,4.2,1.2s.4,0,.4,.2v.8Zm-12.8-23.6c0-2.2-.8-4-2.3-5.4-2.2-1.9-5.3-2.9-9.4-2.9s-.9,.1-1,.3c0,4.7,0,7.7-.1,8.9v5.6c0,.2,.1,.3,.4,.3,.4,0,1.5,0,3.3,0s1.6,0,2.5-.2c.9-.1,1.4-.2,1.3-.2,3.5-.9,5.2-3.1,5.2-6.7Z"></path><path class="uuid-29306fde-ddc8-49bb-a9f0-cfb315852fed" d="M254.1,58c-.5,.9-1.1,2-1.8,3.2-.1,.2-.3,.3-.6,.3h-24.9c-.2,0-.3,0-.3-.3v-.8c0-.2,0-.2,.2-.2h3.9c.4,0,.5-.2,.5-.5s0-2.7,0-7.6c0-4.9,0-7.5,0-7.6s0-1.9,0-5.1c0-3.2,0-5,0-5.2,0-3.3-.3-5-1-5h-3.2c-.2,0-.3,0-.3-.2v-.8c0-.2,.1-.2,.3-.2h23.6c.3,0,.7,0,1.3,0,.5,0,.8,0,.8,0,.2,0,.3,0,.3,.2-.2,.9-.6,2-.9,3.1-.1,.4-.3,.6-.4,.6l-.4-.4c-.6-.6-1.7-1-3.1-1.3-2-.3-6.1-.5-12.5-.6-.2,0-.4,0-.4,.3,0,.2-.1,4.3-.1,12.3s.1,.5,.4,.5h12.9c.2,0,.4-.1,.4-.4,0-.2,.1-.8,.2-1.6s.2-1.3,.2-1.3c0-.3,.1-.5,.3-.5h.4c.2,0,.3,.1,.3,.4s0,.8-.1,2.1-.1,2.1-.1,2.3,0,1.1,0,2.6,0,2.3,0,2.4c0,.4,0,.5-.3,.5h-.4c-.2,0-.3-.1-.3-.3,0-1.1-.2-2.3-.3-3.8,0-.3-.2-.5-.5-.5s-2.3,0-6.5,0c-4.2,0-6.3,0-6.4,0-.2,0-.3,.1-.3,.4v9.3c0,4,.5,5.9,1.4,5.9,8.2,0,13.7-.6,16.4-1.8,.6-.3,1-.6,1.2-.6,.2,0,.2,.1,.2,.3Z"></path><path class="uuid-e7c8755c-8196-4c95-b625-eee3f247b27f" d="M313.3,61.3c0,.2,0,.2-.3,.2h-12c-.2,0-.4,0-.4-.2v-.8c0-.2,0-.2,.3-.2h2.8c.4,0,.7-.2,.7-.6v-12.7c0-6.5,0-10.9-.2-13.1,0-.5-.1-.7-.3-.7s-.2,.2-.4,.5c-.4,.7-3.9,8.3-10.7,22.7-1,2.1-1.8,4-2.4,5.5-.2,.3-.3,.4-.4,.4-.2,0-.4-.1-.5-.4-2.4-4.7-4.9-9.5-7.5-14.5-1.4-2.9-3.4-6.8-6-11.7-.2-.3-.3-.4-.4-.4s-.2,.2-.2,.5c-.5,6.6-.7,11.4-.7,14.4v5.6c0,2.9,.4,4.4,1.3,4.4h3.1c.2,0,.3,0,.3,.2v.9c0,.2,0,.2-.2,.2h-9.5c-.2,0-.3,0-.3-.2v-.8c0-.2,0-.3,.3-.3h2.7c.5,0,.7-.4,.7-1.1,0-2.6,.1-7.3,.4-14.2,0-1.3,.2-2.6,.2-3.9,.1-2.6,.2-4.8,.2-6.6s-.9-4-2.7-4.8c-.4-.2-1.2-.3-2.4-.4-.1,0-.2,0-.2-.2v-.9c0-.1,0-.2,.2-.2h7c.3,0,.5,.1,.7,.3,1.6,3,3.4,6.3,5.3,9.9,2.8,5.6,5.8,11.5,9,17.7,.3,.4,.5,.5,.7,.2,2-4.2,4.1-8.7,6.3-13.4,2.2-4.7,4.4-9.5,6.7-14.3,.2-.3,.4-.5,.8-.5h6.7c.2,0,.3,0,.3,.2v.9c0,.2,0,.2-.2,.2h-2.6c-.5,0-.8,.6-.9,1.7-.1,1.1-.2,5.2-.2,12.4s0,9.1,.2,11.4c.2,3.7,.7,5.5,1.6,5.5h3c.1,0,.2,0,.2,.2v.8Z"></path><path class="uuid-d6256303-ea17-489c-a82d-780dd1aa3cdc" d="M341.7,61.4c0,.1,0,.2-.2,.2h-12.8c-.2,0-.3,0-.3,0,0,0,0-.1,0-.2v-.8c0-.1,0-.2,0-.3,0,0,.1,0,.2,0h3.6c.2,0,.4-.2,.4-.7v-25.6c0-3.1-.4-4.7-1-4.7h-3.3c-.2,0-.4,0-.4-.2v-.9c0-.1,0-.2,.3-.2h12.8c.2,0,.2,0,.2,.2v.9c0,.1,0,.2-.3,.2h-3.7c-.3,0-.5,.2-.5,.5,0,15,0,22.7,0,23.2,0,2.4,0,3.8,0,4.2,.1,2,.5,3.1,1.1,3.1h3.7c.1,0,.2,0,.2,.2v.9Z"></path><path class="uuid-3dcbe808-ccfb-4c69-9e83-b587f198242a" d="M392.8,28.9c0,.2,0,.3-.2,.3h-1.5c-1.4,0-2.1,0-2.3,0,0,.3-.1,.7-.1,1.1,0,1.1-.1,2.7-.2,4.9,0,3.2,0,7.4,.1,12.7,.2,9.5-4,14.2-12.5,14.2s-6.6-.4-8.9-1.1c-2.3-.7-3.9-2-4.9-3.9-.8-1.6-1.3-3.9-1.4-7,0-2-.1-7.1-.1-15.2s-.3-5.8-1-5.8h-3.6c-.2,0-.3,0-.3-.2v-.8c0-.2,0-.3,.3-.3h12.9c.2,0,.3,0,.3,.2v.8c0,.2,0,.3-.2,.3h-3.7c-.2,0-.3,.1-.4,.4-.1,.7-.2,6.1-.2,16.3s.1,5.9,.3,7.2c.4,2.4,1.6,4.1,3.5,5.4,1.9,1.2,4.6,1.8,7.9,1.8s5.9-.9,7.9-2.8c1.5-1.4,2.3-4.2,2.3-8.4s0-9.6-.2-12.3c-.2-5.1-.8-7.6-1.7-7.6h-3.4c-.1,0-.2,0-.3,0,0,0,0-.1,0-.2v-.8c0-.2,.1-.2,.3-.2h10.7c.2,0,.3,0,.3,.2v.8Z"></path><path class="uuid-aae9a0d9-13f8-4626-af41-6a6ce69eaa38" d="M452.8,61.3c0,.2,0,.2-.3,.2h-12c-.2,0-.4,0-.4-.2v-.8c0-.2,0-.2,.3-.2h2.8c.4,0,.7-.2,.7-.6v-12.7c0-6.5,0-10.9-.2-13.1,0-.5-.1-.7-.3-.7s-.2,.2-.4,.5c-.4,.7-3.9,8.3-10.7,22.7-1,2.1-1.8,4-2.4,5.5-.2,.3-.3,.4-.4,.4-.2,0-.4-.1-.5-.4-2.4-4.7-4.9-9.5-7.5-14.5-1.4-2.9-3.4-6.8-6-11.7-.2-.3-.3-.4-.4-.4s-.2,.2-.2,.5c-.5,6.6-.7,11.4-.7,14.4v5.6c0,2.9,.4,4.4,1.3,4.4h3.1c.2,0,.3,0,.3,.2v.9c0,.2,0,.2-.2,.2h-9.5c-.2,0-.3,0-.3-.2v-.8c0-.2,0-.3,.3-.3h2.7c.5,0,.7-.4,.7-1.1,0-2.6,.1-7.3,.4-14.2,0-1.3,.2-2.6,.2-3.9,.1-2.6,.2-4.8,.2-6.6s-.9-4-2.7-4.8c-.4-.2-1.2-.3-2.4-.4-.1,0-.2,0-.2-.2v-.9c0-.1,0-.2,.2-.2h7c.3,0,.5,.1,.7,.3,1.6,3,3.4,6.3,5.3,9.9,2.8,5.6,5.8,11.5,9,17.7,.3,.4,.5,.5,.7,.2,2-4.2,4.1-8.7,6.3-13.4,2.2-4.7,4.4-9.5,6.7-14.3,.2-.3,.4-.5,.8-.5h6.7c.2,0,.3,0,.3,.2v.9c0,.2,0,.2-.2,.2h-2.6c-.5,0-.8,.6-.9,1.7-.1,1.1-.2,5.2-.2,12.4s0,9.1,.2,11.4c.2,3.7,.7,5.5,1.6,5.5h3c.1,0,.2,0,.2,.2v.8Z"></path></g><g><path class="uuid-1f762f0d-184a-42b5-8186-6b928acc0ccc" d="M397,96.1h3l-6.3-6.8h2.6c1.9,0,3.5-1.4,3.5-3.1v-5c0-1.7-1.6-3.1-3.5-3.1h-16v18h2.7v-6.8h7.7l6.3,6.8Zm-14-15.9h12.6c.8,0,1.4,.6,1.4,1.4v4.2c0,.7-.6,1.3-1.4,1.3h-12.6v-6.9Z"></path><polygon class="uuid-81909c18-3c36-4b6c-87b8-fb56ee104a2f" points="270 78.2 290 78.2 290 80.2 281.2 80.2 281.2 95.8 278.9 95.8 278.9 80.2 270 80.2 270 78.2"></polygon><path class="uuid-81909c18-3c36-4b6c-87b8-fb56ee104a2f" d="M231.3,83c-.1-1.7-.6-2.9-1.2-3.5-.6-.6-1.5-.9-2.7-1.1-1.2-.2-3.4-.3-6.4-.3s-3.9,0-5.6,.1c-1.2,0-2.1,.2-2.7,.3-.6,.2-1.1,.4-1.5,.7-.7,.5-1.1,1.3-1.4,2.4-.2,1.1-.4,2.9-.4,5.2s.1,4.6,.4,5.7c.2,.7,.5,1.3,1,1.8,.5,.5,1.2,.9,1.9,1,1.3,.3,4.3,.4,9.1,.4s4.6-.1,5.8-.3c1.2-.2,2-.6,2.5-1.1,.5-.5,.9-1.4,1.1-2.5,.2-1.1,.3-2.7,.3-4.9s0-3-.2-4Zm-2.5,8.6c-.2,1-.8,1.6-1.8,1.8-1.3,.2-3.4,.4-6.2,.4s-3.5,0-5.1-.1c-1.7-.1-2.8-.4-3.2-.8-.3-.3-.5-.9-.6-1.8-.1-.9-.2-2.3-.2-4.3,0-3.2,.3-5.1,.9-5.6,.4-.3,1-.6,2.1-.7,1-.1,2.6-.2,4.8-.2,3.7,0,6.1,0,7.2,.3,1.1,.2,1.8,.8,2,1.7,.2,.9,.3,2.5,.3,4.9s-.1,3.3-.3,4.5Z"></path><path class="uuid-81909c18-3c36-4b6c-87b8-fb56ee104a2f" d="M343.9,83c-.1-1.7-.6-2.9-1.2-3.5-.6-.6-1.5-.9-2.7-1.1-1.2-.2-3.4-.3-6.4-.3s-3.9,0-5.6,.1c-1.2,0-2.1,.2-2.7,.3-.6,.2-1.1,.4-1.5,.7-.7,.5-1.1,1.3-1.4,2.4-.2,1.1-.4,2.9-.4,5.2s.1,4.6,.4,5.7c.2,.7,.5,1.3,1,1.8,.5,.5,1.2,.9,1.9,1,1.3,.3,4.3,.4,9.1,.4s4.6-.1,5.8-.3c1.2-.2,2-.6,2.5-1.1,.5-.5,.9-1.4,1.1-2.5,.2-1.1,.3-2.7,.3-4.9s0-3-.2-4Zm-2.5,8.6c-.2,1-.8,1.6-1.8,1.8-1.3,.2-3.4,.4-6.2,.4s-3.5,0-5.1-.1c-1.7-.1-2.8-.4-3.2-.8-.3-.3-.5-.9-.6-1.8-.1-.9-.2-2.3-.2-4.3,0-3.2,.3-5.1,.9-5.6,.4-.3,1-.6,2.1-.7,1-.1,2.6-.2,4.8-.2,3.7,0,6.1,0,7.2,.3,1.1,.2,1.8,.8,2,1.7,.2,.9,.3,2.5,.3,4.9s-.1,3.3-.3,4.5Z"></path><polygon class="uuid-81909c18-3c36-4b6c-87b8-fb56ee104a2f" points="141.1 78.2 145.8 78.2 155.4 93.2 164.8 78.2 169.5 78.2 169.5 95.8 167.2 95.8 167.2 80.4 166.2 80.4 156.3 95.8 154.4 95.8 144.5 80.4 143.4 80.4 143.4 95.8 141.1 95.8 141.1 78.2"></polygon><path class="uuid-1f762f0d-184a-42b5-8186-6b928acc0ccc" d="M453,88.3c0-1.7-1.7-3.1-3.9-3.1h-10.6c-.8,0-1.5-.6-1.5-1.3v-3.1c0-.8,.7-1.4,1.5-1.4h14v-2.2h-14.8c-2.1,0-3.9,1.4-3.9,3.1v3.9c0,1.7,1.7,3.1,3.9,3.1h10.6c.9,0,1.5,.6,1.5,1.3v3.1c0,.8-.7,1.4-1.5,1.4h-14.3v2.2h15c2.1,0,3.9-1.4,3.9-3.1v-3.9Z"></path></g></g></g></svg>